<mxfile host="app.diagrams.net" modified="2024-04-17T18:22:08.246Z" agent="Mozilla/5.0 (Windows NT 10.0; Win64; x64) AppleWebKit/537.36 (KHTML, like Gecko) Chrome/123.0.0.0 Safari/537.36" etag="DDH49PVW93XV27YRbSIL" version="24.2.5" type="github" pages="13">
  <diagram name="vAutentificación" id="03018318-947c-dd8e-b7a3-06fadd420f32">
    <mxGraphModel dx="935" dy="528" grid="1" gridSize="10" guides="1" tooltips="1" connect="1" arrows="1" fold="1" page="1" pageScale="1" pageWidth="1600" pageHeight="900" background="#ffffff" math="0" shadow="0">
      <root>
        <mxCell id="0" />
        <mxCell id="1" parent="0" />
        <mxCell id="lvhIsKmw_hBSgWIsU05B-8" value="" style="rounded=0;whiteSpace=wrap;html=1;" parent="1" vertex="1">
          <mxGeometry x="390" y="80" width="335" height="450" as="geometry" />
        </mxCell>
        <mxCell id="lvhIsKmw_hBSgWIsU05B-6" value="" style="rounded=1;whiteSpace=wrap;html=1;" parent="1" vertex="1">
          <mxGeometry x="422.5" y="110" width="270" height="390" as="geometry" />
        </mxCell>
        <mxCell id="hui9C4-s8HY-JZNCgwLb-14" value="IMAGEN DE&amp;nbsp;&lt;div&gt;USUARIO&lt;/div&gt;" style="ellipse;whiteSpace=wrap;html=1;aspect=fixed;fillColor=#f5f5f5;fontColor=#333333;strokeColor=#666666;" parent="1" vertex="1">
          <mxGeometry x="492.5" y="143" width="130" height="130" as="geometry" />
        </mxCell>
        <mxCell id="lvhIsKmw_hBSgWIsU05B-9" value="Usuario..." style="rounded=0;whiteSpace=wrap;html=1;align=left;" parent="1" vertex="1">
          <mxGeometry x="452.5" y="300" width="210" height="30" as="geometry" />
        </mxCell>
        <mxCell id="lvhIsKmw_hBSgWIsU05B-10" value="Contraseña..." style="rounded=0;whiteSpace=wrap;html=1;align=left;" parent="1" vertex="1">
          <mxGeometry x="452.5" y="348" width="177.5" height="30" as="geometry" />
        </mxCell>
        <mxCell id="lvhIsKmw_hBSgWIsU05B-11" value="ENTRAR" style="rounded=1;whiteSpace=wrap;html=1;" parent="1" vertex="1">
          <mxGeometry x="442.5" y="425" width="230" height="50" as="geometry" />
        </mxCell>
        <mxCell id="lvhIsKmw_hBSgWIsU05B-16" value="" style="group" parent="1" connectable="0" vertex="1">
          <mxGeometry x="452.5" y="386" width="90" height="30" as="geometry" />
        </mxCell>
        <mxCell id="lvhIsKmw_hBSgWIsU05B-12" value="" style="whiteSpace=wrap;html=1;aspect=fixed;" parent="lvhIsKmw_hBSgWIsU05B-16" vertex="1">
          <mxGeometry y="10" width="10" height="10" as="geometry" />
        </mxCell>
        <mxCell id="lvhIsKmw_hBSgWIsU05B-14" value="Recordarme" style="text;html=1;align=center;verticalAlign=middle;whiteSpace=wrap;rounded=0;" parent="lvhIsKmw_hBSgWIsU05B-16" vertex="1">
          <mxGeometry x="12" width="70" height="30" as="geometry" />
        </mxCell>
        <mxCell id="hui9C4-s8HY-JZNCgwLb-18" value="" style="ellipse;whiteSpace=wrap;html=1;" parent="1" vertex="1">
          <mxGeometry x="637.5" y="358" width="20" height="10" as="geometry" />
        </mxCell>
        <mxCell id="hui9C4-s8HY-JZNCgwLb-19" value="" style="ellipse;whiteSpace=wrap;html=1;aspect=fixed;" parent="1" vertex="1">
          <mxGeometry x="642.5" y="358" width="10" height="10" as="geometry" />
        </mxCell>
        <mxCell id="Y8u9lksRqWUSARXrMGD_-4" value="&lt;b&gt;&lt;font color=&quot;#ffffff&quot;&gt;JFRAME (VENTANA INDEPENDIENTE)&lt;/font&gt;&lt;/b&gt;" style="shape=note;whiteSpace=wrap;html=1;backgroundOutline=1;fontColor=#000000;darkOpacity=0.05;fillColor=#666600;strokeColor=none;fillStyle=solid;direction=west;gradientDirection=north;gradientColor=none;shadow=1;size=20;pointerEvents=1;" vertex="1" parent="1">
          <mxGeometry x="760" y="80" width="130" height="80" as="geometry" />
        </mxCell>
      </root>
    </mxGraphModel>
  </diagram>
  <diagram id="8d4SO7tUS_MHfRml8XEU" name="vContrato">
    <mxGraphModel dx="1100" dy="621" grid="1" gridSize="10" guides="1" tooltips="1" connect="1" arrows="1" fold="1" page="1" pageScale="1" pageWidth="827" pageHeight="1169" math="0" shadow="0">
      <root>
        <mxCell id="0" />
        <mxCell id="1" parent="0" />
        <mxCell id="67OYLJA_T3Y3fk4SH6O7-1" value="" style="whiteSpace=wrap;html=1;aspect=fixed;" parent="1" vertex="1">
          <mxGeometry x="70" y="50" width="490" height="490" as="geometry" />
        </mxCell>
        <mxCell id="fpO12NogGW_CQRByN-kZ-1" value="" style="rounded=1;whiteSpace=wrap;html=1;rotation=0;" parent="1" vertex="1">
          <mxGeometry x="100" y="140" width="430" height="310" as="geometry" />
        </mxCell>
        <mxCell id="fpO12NogGW_CQRByN-kZ-3" value="&lt;font style=&quot;font-size: 18px;&quot;&gt;Contrato de Aceptación del Inicio de Sesión a la Comunidad Imiriano&lt;/font&gt;" style="text;html=1;align=center;verticalAlign=middle;whiteSpace=wrap;rounded=0;" parent="1" vertex="1">
          <mxGeometry x="172.5" y="70" width="285" height="30" as="geometry" />
        </mxCell>
        <mxCell id="LLUs9pH4li27CfjuOUam-3" value="&lt;div&gt;Contrato de Aceptación del Inicio de Sesión a la Comunidad&lt;/div&gt;&lt;div&gt;&lt;br&gt;&lt;/div&gt;&lt;div&gt;Este Contrato de Aceptación del Inicio de Sesión se celebra entre [sectas.gal/imiriano.sec/], en adelante sectas.gal/imiriano.sec/users_accept, y el Usuario, en adelante &quot;%nombreUsuario&quot;.&lt;/div&gt;&lt;div&gt;&lt;br&gt;&lt;/div&gt;&lt;div&gt;1. Aceptación del Inicio de Sesión&lt;/div&gt;&lt;div&gt;&lt;br&gt;&lt;/div&gt;&lt;div&gt;El Usuario acepta que al iniciar sesión en la base de datos utilizando su nombre de acolito y contraseña, está accediendo a los servicios y contenidos proporcionados por la comunidad Imiriano.&amp;nbsp;&lt;/div&gt;&lt;div&gt;&lt;br&gt;&lt;/div&gt;&lt;div&gt;2. Responsabilidad del Usuario&lt;/div&gt;&lt;div&gt;&lt;br&gt;&lt;/div&gt;&lt;div&gt;* El Usuario es responsable de mantener la confidencialidad de su nombre de acolito y contraseña, y de todas las actividades que ocurran bajo su cuenta.&amp;nbsp;&lt;/div&gt;&lt;div&gt;* Al aceptar este contrato, el Usuario se compromete a mostrar su ubicación en tiempo real durante el resto de su vida, con el fin de poder localizarlo para cualquier fin de la Comunidad&lt;/div&gt;&lt;div&gt;* Asimismo, al optar por dejar de formar parte de nuestra Comunidad, el Usuario está incumpliendo con los principios y valores fundamentales que sustentan nuestra Sociedad, poniendo en peligro su propia vida.&lt;/div&gt;&lt;div&gt;&lt;br&gt;&lt;/div&gt;&lt;div&gt;3. Uso Aceptable&lt;/div&gt;&lt;div&gt;&lt;br&gt;&lt;/div&gt;&lt;div&gt;El Usuario acepta utilizar la Base de Datos de nuestra Comunidad de acuerdo con los términos y condiciones establecidos por la misma, así como cumplir con todas las leyes y regulaciones aplicables.&lt;/div&gt;&lt;div&gt;&lt;br&gt;&lt;/div&gt;&lt;div&gt;4. Privacidad&lt;/div&gt;&lt;div&gt;&lt;br&gt;&lt;/div&gt;&lt;div&gt;La Base de Datos se compromete a proteger la privacidad del Usuario de acuerdo con su política de privacidad. Al aceptar este Contrato, el Usuario también acepta los términos de la política de privacidad de la Base de Datos.&lt;/div&gt;&lt;div&gt;&lt;br&gt;&lt;/div&gt;&lt;div&gt;5. Terminación&lt;/div&gt;&lt;div&gt;&lt;br&gt;&lt;/div&gt;&lt;div&gt;Este Contrato permanecerá en vigor hasta que sea terminado por cualquiera de las partes. La Base de Datos se reserva el derecho de terminar este Contrato y de bloquear el acceso del Usuario a su cuenta en caso de violación de los términos y condiciones establecidos. Como bien se dijo en el punto 2, cualquier tipo de desligue del Usuario con nuestra Comunidad será penado seriamente, con una decisión que no tendrá vuelta atrás.&lt;/div&gt;&lt;div&gt;&lt;br&gt;&lt;/div&gt;&lt;div&gt;6. Ley Aplicable&lt;/div&gt;&lt;div&gt;&lt;br&gt;&lt;/div&gt;&lt;div&gt;Este Contrato se regirá e interpretará de acuerdo con las leyes del Mundo Imir sin tener en cuenta sus principios de conflicto de leyes.&lt;/div&gt;&lt;div&gt;&lt;br&gt;&lt;/div&gt;&lt;div&gt;Al iniciar sesión en la Base de Datos, el Usuario acepta los términos y condiciones establecidos en este Contrato.&lt;/div&gt;" style="text;strokeColor=none;fillColor=none;align=left;verticalAlign=top;spacingLeft=4;spacingRight=4;overflow=hidden;points=[[0,0.5],[1,0.5]];portConstraint=eastwest;rotatable=0;html=1;whiteSpace=wrap;horizontal=1;fontFamily=Garamond;" parent="1" vertex="1">
          <mxGeometry x="115" y="170" width="375" height="250" as="geometry" />
        </mxCell>
        <mxCell id="RaoL3PNnWMrIqIa72d78-1" value="&lt;font color=&quot;#9e9e9e&quot;&gt;Rechazar&lt;/font&gt;" style="rounded=1;whiteSpace=wrap;html=1;fillColor=none;strokeColor=#A1A1A1;" parent="1" vertex="1">
          <mxGeometry x="115" y="480" width="120" height="30" as="geometry" />
        </mxCell>
        <mxCell id="RaoL3PNnWMrIqIa72d78-2" value="Aceptar" style="rounded=1;whiteSpace=wrap;html=1;" parent="1" vertex="1">
          <mxGeometry x="400" y="480" width="120" height="30" as="geometry" />
        </mxCell>
        <mxCell id="LLUs9pH4li27CfjuOUam-4" value="" style="shape=flexArrow;endArrow=classic;startArrow=classic;html=1;rounded=0;startWidth=6.046511627906977;endWidth=6.046511627906977;startSize=5.272093023255815;endSize=5.272093023255815;" parent="1" edge="1">
          <mxGeometry width="100" height="100" relative="1" as="geometry">
            <mxPoint x="510" y="410" as="sourcePoint" />
            <mxPoint x="510" y="170" as="targetPoint" />
          </mxGeometry>
        </mxCell>
        <mxCell id="_23TIhOY403f-S0hN65E-1" value="&lt;b&gt;&lt;font color=&quot;#ffffff&quot;&gt;* Tamaño pequeño-medio&lt;/font&gt;&lt;/b&gt;&lt;div&gt;&lt;b&gt;&lt;font color=&quot;#ffffff&quot;&gt;* JFRAME (VENTANA INDEPENDIENTE)&lt;/font&gt;&lt;/b&gt;&lt;/div&gt;" style="shape=note;whiteSpace=wrap;html=1;backgroundOutline=1;fontColor=#000000;darkOpacity=0.05;fillColor=#666600;strokeColor=none;fillStyle=solid;direction=west;gradientDirection=north;gradientColor=none;shadow=1;size=20;pointerEvents=1;" vertex="1" parent="1">
          <mxGeometry x="570" y="50" width="130" height="80" as="geometry" />
        </mxCell>
        <mxCell id="I7UXHs30VHqIMoQsyKC1-1" value="" style="endArrow=none;html=1;rounded=0;entryX=0.003;entryY=0.133;entryDx=0;entryDy=0;entryPerimeter=0;exitX=1.002;exitY=0.137;exitDx=0;exitDy=0;exitPerimeter=0;" edge="1" parent="1" source="67OYLJA_T3Y3fk4SH6O7-1" target="67OYLJA_T3Y3fk4SH6O7-1">
          <mxGeometry width="50" height="50" relative="1" as="geometry">
            <mxPoint x="320" y="220" as="sourcePoint" />
            <mxPoint x="370" y="170" as="targetPoint" />
            <Array as="points">
              <mxPoint x="490" y="115" />
            </Array>
          </mxGeometry>
        </mxCell>
      </root>
    </mxGraphModel>
  </diagram>
  <diagram id="zNE-CDEz7Ip91GCEoYVG" name="vPrincipal">
    <mxGraphModel dx="1558" dy="880" grid="1" gridSize="10" guides="1" tooltips="1" connect="1" arrows="1" fold="1" page="1" pageScale="1" pageWidth="1169" pageHeight="827" math="0" shadow="0">
      <root>
        <mxCell id="0" />
        <mxCell id="1" parent="0" />
        <mxCell id="U8qcqG31ZKKsxlURk22T-6" value="EVENTOS" style="rounded=0;whiteSpace=wrap;html=1;" vertex="1" parent="1">
          <mxGeometry x="770" y="140" width="350" height="30" as="geometry" />
        </mxCell>
        <mxCell id="U8qcqG31ZKKsxlURk22T-1" value="" style="ellipse;whiteSpace=wrap;html=1;aspect=fixed;" vertex="1" parent="1">
          <mxGeometry x="334" y="250" width="80" height="80" as="geometry" />
        </mxCell>
        <mxCell id="U8qcqG31ZKKsxlURk22T-2" value="" style="whiteSpace=wrap;html=1;aspect=fixed;" vertex="1" parent="1">
          <mxGeometry x="301.77" y="230" width="80" height="80" as="geometry" />
        </mxCell>
        <mxCell id="U8qcqG31ZKKsxlURk22T-8" value="" style="rounded=0;whiteSpace=wrap;html=1;" vertex="1" parent="1">
          <mxGeometry x="620" y="480" width="500" height="210" as="geometry" />
        </mxCell>
        <mxCell id="U8qcqG31ZKKsxlURk22T-3" value="" style="rounded=0;whiteSpace=wrap;html=1;" vertex="1" parent="1">
          <mxGeometry x="10.77" y="20" width="1139.23" height="770" as="geometry" />
        </mxCell>
        <mxCell id="U8qcqG31ZKKsxlURk22T-9" value="" style="group" connectable="0" vertex="1" parent="1">
          <mxGeometry x="40" y="150" width="400" height="600" as="geometry" />
        </mxCell>
        <mxCell id="U8qcqG31ZKKsxlURk22T-10" value="&lt;div style=&quot;text-align: justify;&quot;&gt;&lt;br&gt;&lt;/div&gt;" style="rounded=1;whiteSpace=wrap;html=1;movable=1;resizable=1;rotatable=1;deletable=1;editable=1;locked=0;connectable=1;" vertex="1" parent="U8qcqG31ZKKsxlURk22T-9">
          <mxGeometry width="380.00000000000006" height="600" as="geometry" />
        </mxCell>
        <mxCell id="U8qcqG31ZKKsxlURk22T-11" value="IMAGEN" style="rounded=1;whiteSpace=wrap;html=1;movable=1;resizable=1;rotatable=1;deletable=1;editable=1;locked=0;connectable=1;" vertex="1" parent="U8qcqG31ZKKsxlURk22T-9">
          <mxGeometry x="42.75" y="40" width="294.5" height="128.75" as="geometry" />
        </mxCell>
        <mxCell id="6ZlYNbCbla_xj4Pu04zu-8" value="&lt;div style=&quot;text-align: justify;&quot;&gt;&lt;span style=&quot;font-size: 18px; background-color: initial;&quot;&gt;La diosa Imyr, una figura misteriosa que emergió de los océanos en tiempos antiguos, es reverenciada por su sabiduría y su capacidad para dar forma a la tierra y las aguas. Aunque enfrentó desafíos y conflictos, Imyr siempre mostró compasión por aquellos que la adoraban. Su culto ganó seguidores devotos en todo el mundo, quienes comparten su creencia en la armonía, la prosperidad y la justicia. Imyr se convirtió en un símbolo de esperanza y redención, inspirando a generaciones futuras a seguir sus enseñanzas de sabiduría y valentía&lt;/span&gt;&lt;/div&gt;" style="text;html=1;align=center;verticalAlign=middle;whiteSpace=wrap;rounded=0;" vertex="1" parent="U8qcqG31ZKKsxlURk22T-9">
          <mxGeometry x="42.75" y="200" width="297.25" height="350" as="geometry" />
        </mxCell>
        <mxCell id="U8qcqG31ZKKsxlURk22T-4" value="" style="endArrow=none;html=1;rounded=0;entryX=-0.001;entryY=0.124;entryDx=0;entryDy=0;entryPerimeter=0;exitX=0.998;exitY=0.12;exitDx=0;exitDy=0;exitPerimeter=0;" edge="1" parent="1" source="U8qcqG31ZKKsxlURk22T-3" target="U8qcqG31ZKKsxlURk22T-3">
          <mxGeometry width="50" height="50" relative="1" as="geometry">
            <mxPoint x="311.77" y="300" as="sourcePoint" />
            <mxPoint x="361.77" y="250" as="targetPoint" />
          </mxGeometry>
        </mxCell>
        <mxCell id="U8qcqG31ZKKsxlURk22T-5" value="&lt;font style=&quot;font-size: 36px;&quot;&gt;Bienvenidx a la Comunidad Imyriano&lt;/font&gt;" style="text;html=1;align=center;verticalAlign=middle;whiteSpace=wrap;rounded=0;" vertex="1" parent="1">
          <mxGeometry x="262" y="50" width="644.23" height="30" as="geometry" />
        </mxCell>
        <mxCell id="U8qcqG31ZKKsxlURk22T-13" value="Nº DE MIEMBROS: XX&lt;br&gt;Nª DE EVENTOS REALIZADOS: XX&lt;br&gt;Nº CONTACTOS: XX&lt;br&gt;Nº RITUALES RELIZADOS: XX&lt;br&gt;* INICIACIÓN: XX&lt;br&gt;* IMYR: XX&lt;br&gt;* ILUMINACIÓN: XX&lt;br&gt;* EXTREMAUNCIÓN: XX" style="rounded=1;whiteSpace=wrap;html=1;" vertex="1" parent="1">
          <mxGeometry x="450" y="600" width="510" height="150" as="geometry" />
        </mxCell>
        <mxCell id="srUC1WTLf0u6y_Ojjdjr-1" value="LISTA DE RITUALES&amp;nbsp;&lt;div&gt;PASADOS&lt;/div&gt;" style="rounded=0;whiteSpace=wrap;html=1;" vertex="1" parent="1">
          <mxGeometry x="977" y="160" width="160" height="550" as="geometry" />
        </mxCell>
        <mxCell id="U8qcqG31ZKKsxlURk22T-12" value="OPCIONES" style="rounded=0;whiteSpace=wrap;html=1;" vertex="1" parent="1">
          <mxGeometry x="978" y="730" width="172" height="60" as="geometry" />
        </mxCell>
        <mxCell id="vvXjlBKuuokLdfvz4SX1-1" value="" style="group" connectable="0" vertex="1" parent="1">
          <mxGeometry x="450" y="160" width="510" height="205" as="geometry" />
        </mxCell>
        <mxCell id="vvXjlBKuuokLdfvz4SX1-2" value="LISTA DE EVENTOS PASADOS" style="rounded=0;whiteSpace=wrap;html=1;" vertex="1" parent="vvXjlBKuuokLdfvz4SX1-1">
          <mxGeometry width="510" height="205" as="geometry" />
        </mxCell>
        <mxCell id="vvXjlBKuuokLdfvz4SX1-3" value="" style="endArrow=none;html=1;rounded=0;exitX=-0.002;exitY=0.132;exitDx=0;exitDy=0;exitPerimeter=0;entryX=0.996;entryY=0.135;entryDx=0;entryDy=0;entryPerimeter=0;" edge="1" parent="vvXjlBKuuokLdfvz4SX1-1" source="vvXjlBKuuokLdfvz4SX1-2" target="vvXjlBKuuokLdfvz4SX1-2">
          <mxGeometry width="50" height="50" relative="1" as="geometry">
            <mxPoint x="300" y="170" as="sourcePoint" />
            <mxPoint x="350" y="120" as="targetPoint" />
          </mxGeometry>
        </mxCell>
        <mxCell id="vvXjlBKuuokLdfvz4SX1-4" value="RESULTADO" style="text;html=1;align=center;verticalAlign=middle;whiteSpace=wrap;rounded=0;fontSize=14;" vertex="1" parent="vvXjlBKuuokLdfvz4SX1-1">
          <mxGeometry x="430" width="60" height="30" as="geometry" />
        </mxCell>
        <mxCell id="vvXjlBKuuokLdfvz4SX1-5" value="F INICIO" style="text;html=1;align=center;verticalAlign=middle;whiteSpace=wrap;rounded=0;fontSize=12;" vertex="1" parent="vvXjlBKuuokLdfvz4SX1-1">
          <mxGeometry x="76" width="70" height="30" as="geometry" />
        </mxCell>
        <mxCell id="vvXjlBKuuokLdfvz4SX1-6" value="F FINAL" style="text;html=1;align=center;verticalAlign=middle;whiteSpace=wrap;rounded=0;fontSize=12;" vertex="1" parent="vvXjlBKuuokLdfvz4SX1-1">
          <mxGeometry x="140" width="70" height="30" as="geometry" />
        </mxCell>
        <mxCell id="vvXjlBKuuokLdfvz4SX1-7" value="DESCRIPCIÓN&amp;nbsp;" style="text;html=1;align=center;verticalAlign=middle;whiteSpace=wrap;rounded=0;fontSize=14;" vertex="1" parent="vvXjlBKuuokLdfvz4SX1-1">
          <mxGeometry x="180" width="250" height="30" as="geometry" />
        </mxCell>
        <mxCell id="vvXjlBKuuokLdfvz4SX1-8" value="" style="endArrow=none;html=1;rounded=0;exitX=0.059;exitY=-0.025;exitDx=0;exitDy=0;exitPerimeter=0;entryX=0.156;entryY=1.006;entryDx=0;entryDy=0;entryPerimeter=0;" edge="1" parent="vvXjlBKuuokLdfvz4SX1-1" source="vvXjlBKuuokLdfvz4SX1-5" target="vvXjlBKuuokLdfvz4SX1-2">
          <mxGeometry width="50" height="50" relative="1" as="geometry">
            <mxPoint x="80" y="20" as="sourcePoint" />
            <mxPoint x="80" y="200" as="targetPoint" />
            <Array as="points">
              <mxPoint x="80" y="20" />
            </Array>
          </mxGeometry>
        </mxCell>
        <mxCell id="vvXjlBKuuokLdfvz4SX1-9" value="" style="endArrow=none;html=1;rounded=0;exitX=0;exitY=0;exitDx=0;exitDy=0;entryX=0.404;entryY=0.992;entryDx=0;entryDy=0;entryPerimeter=0;" edge="1" parent="vvXjlBKuuokLdfvz4SX1-1" target="vvXjlBKuuokLdfvz4SX1-2">
          <mxGeometry width="50" height="50" relative="1" as="geometry">
            <mxPoint x="205" as="sourcePoint" />
            <mxPoint x="205" y="60" as="targetPoint" />
          </mxGeometry>
        </mxCell>
        <mxCell id="vvXjlBKuuokLdfvz4SX1-10" value="" style="endArrow=none;html=1;rounded=0;exitX=0;exitY=0;exitDx=0;exitDy=0;entryX=0.804;entryY=1.001;entryDx=0;entryDy=0;entryPerimeter=0;" edge="1" parent="vvXjlBKuuokLdfvz4SX1-1" target="vvXjlBKuuokLdfvz4SX1-2">
          <mxGeometry width="50" height="50" relative="1" as="geometry">
            <mxPoint x="409.99999999999994" as="sourcePoint" />
            <mxPoint x="409.99999999999994" y="60" as="targetPoint" />
          </mxGeometry>
        </mxCell>
        <mxCell id="vvXjlBKuuokLdfvz4SX1-11" value="NOMBRE" style="text;html=1;align=center;verticalAlign=middle;whiteSpace=wrap;rounded=0;fontSize=14;" vertex="1" parent="vvXjlBKuuokLdfvz4SX1-1">
          <mxGeometry x="10" width="50" height="30" as="geometry" />
        </mxCell>
        <mxCell id="5Hv438abvAOu4L4kH78O-6" value="" style="endArrow=none;html=1;rounded=0;exitX=0;exitY=0;exitDx=0;exitDy=0;entryX=0.284;entryY=1.004;entryDx=0;entryDy=0;entryPerimeter=0;" edge="1" parent="vvXjlBKuuokLdfvz4SX1-1" target="vvXjlBKuuokLdfvz4SX1-2">
          <mxGeometry width="50" height="50" relative="1" as="geometry">
            <mxPoint x="145.31" as="sourcePoint" />
            <mxPoint x="145.31" y="50" as="targetPoint" />
          </mxGeometry>
        </mxCell>
        <mxCell id="5Hv438abvAOu4L4kH78O-7" value="" style="group" connectable="0" vertex="1" parent="1">
          <mxGeometry x="450" y="380" width="510" height="205" as="geometry" />
        </mxCell>
        <mxCell id="5Hv438abvAOu4L4kH78O-8" value="LISTA DE EVENTOS FUTUROS" style="rounded=0;whiteSpace=wrap;html=1;" vertex="1" parent="5Hv438abvAOu4L4kH78O-7">
          <mxGeometry width="510" height="205" as="geometry" />
        </mxCell>
        <mxCell id="5Hv438abvAOu4L4kH78O-9" value="" style="endArrow=none;html=1;rounded=0;exitX=-0.002;exitY=0.132;exitDx=0;exitDy=0;exitPerimeter=0;entryX=0.996;entryY=0.135;entryDx=0;entryDy=0;entryPerimeter=0;" edge="1" parent="5Hv438abvAOu4L4kH78O-7" source="5Hv438abvAOu4L4kH78O-8" target="5Hv438abvAOu4L4kH78O-8">
          <mxGeometry width="50" height="50" relative="1" as="geometry">
            <mxPoint x="300" y="170" as="sourcePoint" />
            <mxPoint x="350" y="120" as="targetPoint" />
          </mxGeometry>
        </mxCell>
        <mxCell id="5Hv438abvAOu4L4kH78O-10" value="JEFE A CARGO" style="text;html=1;align=center;verticalAlign=middle;whiteSpace=wrap;rounded=0;fontSize=14;" vertex="1" parent="5Hv438abvAOu4L4kH78O-7">
          <mxGeometry x="396" width="114" height="30" as="geometry" />
        </mxCell>
        <mxCell id="5Hv438abvAOu4L4kH78O-11" value="F INICIO" style="text;html=1;align=center;verticalAlign=middle;whiteSpace=wrap;rounded=0;fontSize=12;" vertex="1" parent="5Hv438abvAOu4L4kH78O-7">
          <mxGeometry x="76" width="70" height="30" as="geometry" />
        </mxCell>
        <mxCell id="5Hv438abvAOu4L4kH78O-13" value="DESCRIPCIÓN&amp;nbsp;" style="text;html=1;align=center;verticalAlign=middle;whiteSpace=wrap;rounded=0;fontSize=14;" vertex="1" parent="5Hv438abvAOu4L4kH78O-7">
          <mxGeometry x="146" width="250" height="30" as="geometry" />
        </mxCell>
        <mxCell id="5Hv438abvAOu4L4kH78O-14" value="" style="endArrow=none;html=1;rounded=0;exitX=0.059;exitY=-0.025;exitDx=0;exitDy=0;exitPerimeter=0;" edge="1" parent="5Hv438abvAOu4L4kH78O-7" source="5Hv438abvAOu4L4kH78O-11">
          <mxGeometry width="50" height="50" relative="1" as="geometry">
            <mxPoint x="80" y="20" as="sourcePoint" />
            <mxPoint x="80" y="210" as="targetPoint" />
            <Array as="points">
              <mxPoint x="80" y="20" />
            </Array>
          </mxGeometry>
        </mxCell>
        <mxCell id="5Hv438abvAOu4L4kH78O-16" value="" style="endArrow=none;html=1;rounded=0;exitX=0;exitY=0;exitDx=0;exitDy=0;" edge="1" parent="5Hv438abvAOu4L4kH78O-7">
          <mxGeometry width="50" height="50" relative="1" as="geometry">
            <mxPoint x="394.66999999999996" as="sourcePoint" />
            <mxPoint x="395" y="210" as="targetPoint" />
          </mxGeometry>
        </mxCell>
        <mxCell id="5Hv438abvAOu4L4kH78O-17" value="NOMBRE" style="text;html=1;align=center;verticalAlign=middle;whiteSpace=wrap;rounded=0;fontSize=14;" vertex="1" parent="5Hv438abvAOu4L4kH78O-7">
          <mxGeometry x="10" width="50" height="30" as="geometry" />
        </mxCell>
        <mxCell id="5Hv438abvAOu4L4kH78O-18" value="" style="endArrow=none;html=1;rounded=0;exitX=0;exitY=0;exitDx=0;exitDy=0;entryX=0.285;entryY=0.976;entryDx=0;entryDy=0;entryPerimeter=0;" edge="1" parent="5Hv438abvAOu4L4kH78O-7" target="5Hv438abvAOu4L4kH78O-8">
          <mxGeometry width="50" height="50" relative="1" as="geometry">
            <mxPoint x="145.31" as="sourcePoint" />
            <mxPoint x="145.31" y="50" as="targetPoint" />
          </mxGeometry>
        </mxCell>
        <mxCell id="BESOaOdz5KNaxpdkyYBd-1" value="&lt;b&gt;&lt;font style=&quot;font-size: 18px;&quot; color=&quot;#ffffff&quot;&gt;JFRAME (VENTANA INDEPENDIENTE)&lt;/font&gt;&lt;/b&gt;" style="shape=note;whiteSpace=wrap;html=1;backgroundOutline=1;fontColor=#000000;darkOpacity=0.05;fillColor=#666600;strokeColor=none;fillStyle=solid;direction=west;gradientDirection=north;gradientColor=none;shadow=1;size=20;pointerEvents=1;sketch=1;curveFitting=1;jiggle=2;" vertex="1" parent="1">
          <mxGeometry x="1180" y="20" width="210" height="130" as="geometry" />
        </mxCell>
      </root>
    </mxGraphModel>
  </diagram>
  <diagram id="zFX_eENMoF923-NW8viB" name="vPrincipal(Desplegada)">
    <mxGraphModel dx="1100" dy="621" grid="1" gridSize="10" guides="1" tooltips="1" connect="1" arrows="1" fold="1" page="1" pageScale="1" pageWidth="1169" pageHeight="827" math="0" shadow="0">
      <root>
        <mxCell id="0" />
        <mxCell id="1" parent="0" />
        <mxCell id="VBedsGK9kVwG1CSVoEGB-6" value="" style="rounded=0;whiteSpace=wrap;html=1;" vertex="1" parent="1">
          <mxGeometry x="10.77" y="20" width="1139.23" height="770" as="geometry" />
        </mxCell>
        <mxCell id="pry8Q8y5d-cnIqLZjGqm-1" value="LISTA DE RITUALES&amp;nbsp;&lt;div&gt;PASADOS&lt;/div&gt;" style="rounded=0;whiteSpace=wrap;html=1;" vertex="1" parent="1">
          <mxGeometry x="980" y="160" width="150" height="550" as="geometry" />
        </mxCell>
        <mxCell id="VBedsGK9kVwG1CSVoEGB-17" value="LISTA DE RITUALES&amp;nbsp;&lt;div&gt;PASADOS&lt;/div&gt;" style="rounded=0;whiteSpace=wrap;html=1;" vertex="1" parent="1">
          <mxGeometry x="980" y="160" width="150" height="550" as="geometry" />
        </mxCell>
        <mxCell id="VBedsGK9kVwG1CSVoEGB-2" value="" style="ellipse;whiteSpace=wrap;html=1;aspect=fixed;" vertex="1" parent="1">
          <mxGeometry x="334" y="250" width="80" height="80" as="geometry" />
        </mxCell>
        <mxCell id="VBedsGK9kVwG1CSVoEGB-4" value="" style="whiteSpace=wrap;html=1;aspect=fixed;" vertex="1" parent="1">
          <mxGeometry x="301.77" y="230" width="80" height="80" as="geometry" />
        </mxCell>
        <mxCell id="VBedsGK9kVwG1CSVoEGB-7" value="" style="group" connectable="0" vertex="1" parent="1">
          <mxGeometry x="30" y="150" width="1230" height="600" as="geometry" />
        </mxCell>
        <mxCell id="VBedsGK9kVwG1CSVoEGB-8" value="LORE SOBRE LA DIOSA IMYR" style="rounded=1;whiteSpace=wrap;html=1;movable=1;resizable=1;rotatable=1;deletable=1;editable=1;locked=0;connectable=1;" vertex="1" parent="VBedsGK9kVwG1CSVoEGB-7">
          <mxGeometry width="400.00000000000006" height="600" as="geometry" />
        </mxCell>
        <mxCell id="VBedsGK9kVwG1CSVoEGB-9" value="IMAGEN" style="rounded=1;whiteSpace=wrap;html=1;movable=1;resizable=1;rotatable=1;deletable=1;editable=1;locked=0;connectable=1;" vertex="1" parent="VBedsGK9kVwG1CSVoEGB-7">
          <mxGeometry x="45" y="56.25" width="310" height="112.5" as="geometry" />
        </mxCell>
        <mxCell id="VBedsGK9kVwG1CSVoEGB-11" value="&lt;div&gt;&lt;br&gt;&lt;/div&gt;" style="rounded=0;whiteSpace=wrap;html=1;" vertex="1" parent="1">
          <mxGeometry x="980" y="310" width="170" height="480" as="geometry" />
        </mxCell>
        <mxCell id="VBedsGK9kVwG1CSVoEGB-10" value="" style="endArrow=none;html=1;rounded=0;entryX=-0.001;entryY=0.124;entryDx=0;entryDy=0;entryPerimeter=0;exitX=0.998;exitY=0.12;exitDx=0;exitDy=0;exitPerimeter=0;" edge="1" parent="1" source="VBedsGK9kVwG1CSVoEGB-6" target="VBedsGK9kVwG1CSVoEGB-6">
          <mxGeometry width="50" height="50" relative="1" as="geometry">
            <mxPoint x="311.77" y="300" as="sourcePoint" />
            <mxPoint x="361.77" y="250" as="targetPoint" />
          </mxGeometry>
        </mxCell>
        <mxCell id="VBedsGK9kVwG1CSVoEGB-12" value="&lt;font style=&quot;font-size: 36px;&quot;&gt;Bienvenidx a la Comunidad Imyriano&lt;/font&gt;" style="text;html=1;align=center;verticalAlign=middle;whiteSpace=wrap;rounded=0;" vertex="1" parent="1">
          <mxGeometry x="262" y="50" width="644.23" height="30" as="geometry" />
        </mxCell>
        <mxCell id="VBedsGK9kVwG1CSVoEGB-14" value="Nº DE MIEMBROS: XX&lt;br&gt;Nª DE EVENTOS REALIZADOS: XX&lt;br&gt;Nº CONTACTOS: XX&lt;br&gt;Nº RITUALES RELIZADOS: XX&lt;br&gt;* INICIACIÓN: XX&lt;br&gt;* IMYR: XX&lt;br&gt;* ILUMINACIÓN: XX&lt;br&gt;* EXTREMAUNCIÓN: XX" style="rounded=1;whiteSpace=wrap;html=1;" vertex="1" parent="1">
          <mxGeometry x="450" y="600" width="510" height="150" as="geometry" />
        </mxCell>
        <mxCell id="VBedsGK9kVwG1CSVoEGB-18" value="" style="endArrow=none;html=1;rounded=0;exitX=-0.002;exitY=0.132;exitDx=0;exitDy=0;exitPerimeter=0;" edge="1" parent="1">
          <mxGeometry width="50" height="50" relative="1" as="geometry">
            <mxPoint x="480" y="420" as="sourcePoint" />
            <mxPoint x="450" y="411.33333333333326" as="targetPoint" />
          </mxGeometry>
        </mxCell>
        <mxCell id="wCMPPNmHfqw_Am95NqbI-1" value="IMAGEN DE&amp;nbsp;&lt;div&gt;USUARIO&lt;/div&gt;" style="ellipse;whiteSpace=wrap;html=1;aspect=fixed;fillColor=#f5f5f5;fontColor=#333333;strokeColor=#666666;" vertex="1" parent="1">
          <mxGeometry x="1005" y="280" width="120" height="120" as="geometry" />
        </mxCell>
        <mxCell id="wCMPPNmHfqw_Am95NqbI-2" value="MI PERFIL" style="rounded=0;whiteSpace=wrap;html=1;" vertex="1" parent="1">
          <mxGeometry x="1000" y="450" width="130" height="30" as="geometry" />
        </mxCell>
        <mxCell id="wCMPPNmHfqw_Am95NqbI-3" value="CONTACTOS" style="rounded=0;whiteSpace=wrap;html=1;" vertex="1" parent="1">
          <mxGeometry x="1000" y="500" width="130" height="30" as="geometry" />
        </mxCell>
        <mxCell id="wCMPPNmHfqw_Am95NqbI-4" value="ACÓLITOS" style="rounded=0;whiteSpace=wrap;html=1;" vertex="1" parent="1">
          <mxGeometry x="1000" y="550" width="130" height="30" as="geometry" />
        </mxCell>
        <mxCell id="wCMPPNmHfqw_Am95NqbI-5" value="PROPIEDADES" style="rounded=0;whiteSpace=wrap;html=1;" vertex="1" parent="1">
          <mxGeometry x="1000" y="600" width="130" height="30" as="geometry" />
        </mxCell>
        <mxCell id="UsD-VcvJIha1pnDOq1Pz-1" value="&lt;font style=&quot;font-size: 14px;&quot;&gt;&lt;b&gt;BÁSICO&lt;/b&gt;&lt;/font&gt;&lt;div&gt;&lt;font size=&quot;3&quot;&gt;- Las opciones de &quot;Mi perfil&quot; y &quot;Contactos&quot; son accesibles para TODOS LOS ACÓLITOS, mientras que las 3 siguientes (&quot;Acólitos&quot;, &quot;Propiedades&quot;, &quot;Eventos&quot;) solo son accesibles para los CABECILLAS y JEFES DE DIVISIÓN.&amp;nbsp;&lt;/font&gt;&lt;/div&gt;&lt;div&gt;&lt;font style=&quot;background-color: initial;&quot; size=&quot;3&quot;&gt;&lt;br&gt;&lt;/font&gt;&lt;/div&gt;&lt;div&gt;&lt;font style=&quot;background-color: initial;&quot; size=&quot;3&quot;&gt;-&amp;nbsp;&lt;/font&gt;&lt;span style=&quot;background-color: initial; font-size: medium;&quot;&gt;Para un GUÍA ESPIRITUAL, estará accesible la pestaña de &quot;rituales&quot;&lt;/span&gt;&lt;br&gt;&lt;/div&gt;&lt;div&gt;&lt;font size=&quot;3&quot;&gt;&lt;br&gt;&lt;/font&gt;&lt;/div&gt;&lt;div&gt;&lt;font size=&quot;3&quot;&gt;&lt;b&gt;AVANZADO&lt;/b&gt;&lt;/font&gt;&lt;/div&gt;&lt;div&gt;&lt;font size=&quot;3&quot;&gt;- Para un GESTOR INTERNO, cuando clique en la pestaña &quot;propiedades&quot; se le mostrará la pestaña de propiedades que gestiona.&lt;/font&gt;&lt;/div&gt;&lt;div&gt;&lt;font size=&quot;3&quot;&gt;&lt;br&gt;&lt;/font&gt;&lt;/div&gt;&lt;div&gt;&lt;span style=&quot;font-size: medium; background-color: initial;&quot;&gt;- En función de si quien entra en la opción &quot;Acólitos&quot; es un CABECILLA o un JEFE DE DIVISIÓN, se podrá ver una información u otra. Un CABECILLA puede ver la información de TODOS los acólitos, así como cambiar la división y el jefe al que esta asociado, mientras que un JEFE DE DIVISIÓN solo puede acceder a la información de los acólitos de su propia división&lt;/span&gt;&lt;font size=&quot;3&quot;&gt;&lt;br&gt;&lt;/font&gt;&lt;/div&gt;&lt;div&gt;&lt;br&gt;&lt;/div&gt;" style="shape=note;whiteSpace=wrap;html=1;backgroundOutline=1;darkOpacity=0.05;fillStyle=solid;direction=west;gradientDirection=north;shadow=1;size=20;pointerEvents=1;fillColor=#666600;strokeColor=#3A5431;fontColor=#ffffff;" vertex="1" parent="1">
          <mxGeometry x="1169" y="280" width="360" height="510" as="geometry" />
        </mxCell>
        <mxCell id="ok7_nkv7R3n7K6TEn-l0-1" value="" style="group" connectable="0" vertex="1" parent="1">
          <mxGeometry x="450" y="160" width="510" height="205" as="geometry" />
        </mxCell>
        <mxCell id="ok7_nkv7R3n7K6TEn-l0-2" value="LISTA DE EVENTOS PASADOS" style="rounded=0;whiteSpace=wrap;html=1;" vertex="1" parent="ok7_nkv7R3n7K6TEn-l0-1">
          <mxGeometry width="510" height="205" as="geometry" />
        </mxCell>
        <mxCell id="ok7_nkv7R3n7K6TEn-l0-3" value="" style="endArrow=none;html=1;rounded=0;exitX=-0.002;exitY=0.132;exitDx=0;exitDy=0;exitPerimeter=0;entryX=0.996;entryY=0.135;entryDx=0;entryDy=0;entryPerimeter=0;" edge="1" parent="ok7_nkv7R3n7K6TEn-l0-1" source="ok7_nkv7R3n7K6TEn-l0-2" target="ok7_nkv7R3n7K6TEn-l0-2">
          <mxGeometry width="50" height="50" relative="1" as="geometry">
            <mxPoint x="300" y="170" as="sourcePoint" />
            <mxPoint x="350" y="120" as="targetPoint" />
          </mxGeometry>
        </mxCell>
        <mxCell id="ok7_nkv7R3n7K6TEn-l0-4" value="RESULTADO" style="text;html=1;align=center;verticalAlign=middle;whiteSpace=wrap;rounded=0;fontSize=14;" vertex="1" parent="ok7_nkv7R3n7K6TEn-l0-1">
          <mxGeometry x="430" width="60" height="30" as="geometry" />
        </mxCell>
        <mxCell id="ok7_nkv7R3n7K6TEn-l0-5" value="F INICIO" style="text;html=1;align=center;verticalAlign=middle;whiteSpace=wrap;rounded=0;fontSize=12;" vertex="1" parent="ok7_nkv7R3n7K6TEn-l0-1">
          <mxGeometry x="76" width="70" height="30" as="geometry" />
        </mxCell>
        <mxCell id="ok7_nkv7R3n7K6TEn-l0-6" value="F FINAL" style="text;html=1;align=center;verticalAlign=middle;whiteSpace=wrap;rounded=0;fontSize=12;" vertex="1" parent="ok7_nkv7R3n7K6TEn-l0-1">
          <mxGeometry x="140" width="70" height="30" as="geometry" />
        </mxCell>
        <mxCell id="ok7_nkv7R3n7K6TEn-l0-7" value="DESCRIPCIÓN&amp;nbsp;" style="text;html=1;align=center;verticalAlign=middle;whiteSpace=wrap;rounded=0;fontSize=14;" vertex="1" parent="ok7_nkv7R3n7K6TEn-l0-1">
          <mxGeometry x="180" width="250" height="30" as="geometry" />
        </mxCell>
        <mxCell id="ok7_nkv7R3n7K6TEn-l0-8" value="" style="endArrow=none;html=1;rounded=0;exitX=0.059;exitY=-0.025;exitDx=0;exitDy=0;exitPerimeter=0;entryX=0.156;entryY=1.006;entryDx=0;entryDy=0;entryPerimeter=0;" edge="1" parent="ok7_nkv7R3n7K6TEn-l0-1" source="ok7_nkv7R3n7K6TEn-l0-5" target="ok7_nkv7R3n7K6TEn-l0-2">
          <mxGeometry width="50" height="50" relative="1" as="geometry">
            <mxPoint x="80" y="20" as="sourcePoint" />
            <mxPoint x="80" y="200" as="targetPoint" />
            <Array as="points">
              <mxPoint x="80" y="20" />
            </Array>
          </mxGeometry>
        </mxCell>
        <mxCell id="ok7_nkv7R3n7K6TEn-l0-9" value="" style="endArrow=none;html=1;rounded=0;exitX=0;exitY=0;exitDx=0;exitDy=0;entryX=0.404;entryY=0.992;entryDx=0;entryDy=0;entryPerimeter=0;" edge="1" parent="ok7_nkv7R3n7K6TEn-l0-1" target="ok7_nkv7R3n7K6TEn-l0-2">
          <mxGeometry width="50" height="50" relative="1" as="geometry">
            <mxPoint x="205" as="sourcePoint" />
            <mxPoint x="205" y="60" as="targetPoint" />
          </mxGeometry>
        </mxCell>
        <mxCell id="ok7_nkv7R3n7K6TEn-l0-10" value="" style="endArrow=none;html=1;rounded=0;exitX=0;exitY=0;exitDx=0;exitDy=0;entryX=0.804;entryY=1.001;entryDx=0;entryDy=0;entryPerimeter=0;" edge="1" parent="ok7_nkv7R3n7K6TEn-l0-1" target="ok7_nkv7R3n7K6TEn-l0-2">
          <mxGeometry width="50" height="50" relative="1" as="geometry">
            <mxPoint x="409.99999999999994" as="sourcePoint" />
            <mxPoint x="409.99999999999994" y="60" as="targetPoint" />
          </mxGeometry>
        </mxCell>
        <mxCell id="ok7_nkv7R3n7K6TEn-l0-11" value="NOMBRE" style="text;html=1;align=center;verticalAlign=middle;whiteSpace=wrap;rounded=0;fontSize=14;" vertex="1" parent="ok7_nkv7R3n7K6TEn-l0-1">
          <mxGeometry x="10" width="50" height="30" as="geometry" />
        </mxCell>
        <mxCell id="ok7_nkv7R3n7K6TEn-l0-12" value="" style="endArrow=none;html=1;rounded=0;exitX=0;exitY=0;exitDx=0;exitDy=0;entryX=0.284;entryY=1.004;entryDx=0;entryDy=0;entryPerimeter=0;" edge="1" parent="ok7_nkv7R3n7K6TEn-l0-1" target="ok7_nkv7R3n7K6TEn-l0-2">
          <mxGeometry width="50" height="50" relative="1" as="geometry">
            <mxPoint x="145.31" as="sourcePoint" />
            <mxPoint x="145.31" y="50" as="targetPoint" />
          </mxGeometry>
        </mxCell>
        <mxCell id="ok7_nkv7R3n7K6TEn-l0-13" value="" style="group" connectable="0" vertex="1" parent="1">
          <mxGeometry x="450" y="380" width="510" height="205" as="geometry" />
        </mxCell>
        <mxCell id="ok7_nkv7R3n7K6TEn-l0-14" value="LISTA DE EVENTOS FUTUROS" style="rounded=0;whiteSpace=wrap;html=1;" vertex="1" parent="ok7_nkv7R3n7K6TEn-l0-13">
          <mxGeometry width="510" height="205" as="geometry" />
        </mxCell>
        <mxCell id="ok7_nkv7R3n7K6TEn-l0-15" value="" style="endArrow=none;html=1;rounded=0;exitX=-0.002;exitY=0.132;exitDx=0;exitDy=0;exitPerimeter=0;entryX=0.996;entryY=0.135;entryDx=0;entryDy=0;entryPerimeter=0;" edge="1" parent="ok7_nkv7R3n7K6TEn-l0-13" source="ok7_nkv7R3n7K6TEn-l0-14" target="ok7_nkv7R3n7K6TEn-l0-14">
          <mxGeometry width="50" height="50" relative="1" as="geometry">
            <mxPoint x="300" y="170" as="sourcePoint" />
            <mxPoint x="350" y="120" as="targetPoint" />
          </mxGeometry>
        </mxCell>
        <mxCell id="ok7_nkv7R3n7K6TEn-l0-16" value="JEFE A CARGO" style="text;html=1;align=center;verticalAlign=middle;whiteSpace=wrap;rounded=0;fontSize=14;" vertex="1" parent="ok7_nkv7R3n7K6TEn-l0-13">
          <mxGeometry x="396" width="114" height="30" as="geometry" />
        </mxCell>
        <mxCell id="ok7_nkv7R3n7K6TEn-l0-17" value="F INICIO" style="text;html=1;align=center;verticalAlign=middle;whiteSpace=wrap;rounded=0;fontSize=12;" vertex="1" parent="ok7_nkv7R3n7K6TEn-l0-13">
          <mxGeometry x="76" width="70" height="30" as="geometry" />
        </mxCell>
        <mxCell id="ok7_nkv7R3n7K6TEn-l0-18" value="DESCRIPCIÓN&amp;nbsp;" style="text;html=1;align=center;verticalAlign=middle;whiteSpace=wrap;rounded=0;fontSize=14;" vertex="1" parent="ok7_nkv7R3n7K6TEn-l0-13">
          <mxGeometry x="146" width="250" height="30" as="geometry" />
        </mxCell>
        <mxCell id="ok7_nkv7R3n7K6TEn-l0-19" value="" style="endArrow=none;html=1;rounded=0;exitX=0.059;exitY=-0.025;exitDx=0;exitDy=0;exitPerimeter=0;" edge="1" parent="ok7_nkv7R3n7K6TEn-l0-13" source="ok7_nkv7R3n7K6TEn-l0-17">
          <mxGeometry width="50" height="50" relative="1" as="geometry">
            <mxPoint x="80" y="20" as="sourcePoint" />
            <mxPoint x="80" y="210" as="targetPoint" />
            <Array as="points">
              <mxPoint x="80" y="20" />
            </Array>
          </mxGeometry>
        </mxCell>
        <mxCell id="ok7_nkv7R3n7K6TEn-l0-20" value="" style="endArrow=none;html=1;rounded=0;exitX=0;exitY=0;exitDx=0;exitDy=0;" edge="1" parent="ok7_nkv7R3n7K6TEn-l0-13">
          <mxGeometry width="50" height="50" relative="1" as="geometry">
            <mxPoint x="394.66999999999996" as="sourcePoint" />
            <mxPoint x="395" y="210" as="targetPoint" />
          </mxGeometry>
        </mxCell>
        <mxCell id="ok7_nkv7R3n7K6TEn-l0-21" value="NOMBRE" style="text;html=1;align=center;verticalAlign=middle;whiteSpace=wrap;rounded=0;fontSize=14;" vertex="1" parent="ok7_nkv7R3n7K6TEn-l0-13">
          <mxGeometry x="10" width="50" height="30" as="geometry" />
        </mxCell>
        <mxCell id="ok7_nkv7R3n7K6TEn-l0-22" value="" style="endArrow=none;html=1;rounded=0;exitX=0;exitY=0;exitDx=0;exitDy=0;entryX=0.285;entryY=0.976;entryDx=0;entryDy=0;entryPerimeter=0;" edge="1" parent="ok7_nkv7R3n7K6TEn-l0-13" target="ok7_nkv7R3n7K6TEn-l0-14">
          <mxGeometry width="50" height="50" relative="1" as="geometry">
            <mxPoint x="145.31" as="sourcePoint" />
            <mxPoint x="145.31" y="50" as="targetPoint" />
          </mxGeometry>
        </mxCell>
        <mxCell id="NJ6MH-YbLwVOkhZCu6xk-3" value="EVENTOS" style="rounded=0;whiteSpace=wrap;html=1;" vertex="1" parent="1">
          <mxGeometry x="1000" y="650" width="130" height="30" as="geometry" />
        </mxCell>
        <mxCell id="NJ6MH-YbLwVOkhZCu6xk-4" value="RITUALES" style="rounded=0;whiteSpace=wrap;html=1;" vertex="1" parent="1">
          <mxGeometry x="1000" y="700" width="130" height="30" as="geometry" />
        </mxCell>
      </root>
    </mxGraphModel>
  </diagram>
  <diagram name="vPerfil" id="8tXBLNGm4dkBJHtwmXri">
    <mxGraphModel dx="1336" dy="754" grid="1" gridSize="10" guides="1" tooltips="1" connect="1" arrows="1" fold="1" page="1" pageScale="1" pageWidth="1169" pageHeight="827" math="0" shadow="0">
      <root>
        <mxCell id="9zjqSW4Mfw7pOQg7CZ---0" />
        <mxCell id="9zjqSW4Mfw7pOQg7CZ---1" parent="9zjqSW4Mfw7pOQg7CZ---0" />
        <mxCell id="xOzVu_Tw5cDggV9KdMZN-1" value="&lt;b&gt;&lt;font style=&quot;font-size: 18px;&quot; color=&quot;#ffffff&quot;&gt;* Tamaño de pantalla&lt;/font&gt;&lt;/b&gt;&lt;div&gt;&lt;b&gt;&lt;font style=&quot;font-size: 18px;&quot; color=&quot;#ffffff&quot;&gt;* JDIALOG (deriva de vPrincipal)&lt;/font&gt;&lt;/b&gt;&lt;/div&gt;&lt;div&gt;&lt;b&gt;&lt;font style=&quot;font-size: 18px;&quot; color=&quot;#ffffff&quot;&gt;* Con el botón volver, vamos de vuelta a la página de inicio&lt;/font&gt;&lt;/b&gt;&lt;/div&gt;&lt;div&gt;&lt;b&gt;&lt;font style=&quot;font-size: 18px;&quot; color=&quot;#ffffff&quot;&gt;* Los datos del perfil son todos inmutables menos la descripción, que podrá cambiarse en la base de datos escribiendo una nueva y presionando el botón aceptar&amp;nbsp;&lt;/font&gt;&lt;/b&gt;&lt;/div&gt;" style="shape=note;whiteSpace=wrap;html=1;backgroundOutline=1;fontColor=#000000;darkOpacity=0.05;fillColor=#666600;strokeColor=none;fillStyle=solid;direction=west;gradientDirection=north;gradientColor=none;shadow=1;size=20;pointerEvents=1;" vertex="1" parent="9zjqSW4Mfw7pOQg7CZ---1">
          <mxGeometry x="1180" y="40" width="210" height="380" as="geometry" />
        </mxCell>
        <mxCell id="unWUAu0SodUkLCjB0hvy-61" value="" style="rounded=0;whiteSpace=wrap;html=1;" vertex="1" parent="9zjqSW4Mfw7pOQg7CZ---1">
          <mxGeometry x="15" y="29" width="1139.23" height="770" as="geometry" />
        </mxCell>
        <mxCell id="unWUAu0SodUkLCjB0hvy-62" value="" style="endArrow=none;html=1;rounded=0;entryX=-0.001;entryY=0.124;entryDx=0;entryDy=0;entryPerimeter=0;exitX=0.998;exitY=0.12;exitDx=0;exitDy=0;exitPerimeter=0;" edge="1" parent="9zjqSW4Mfw7pOQg7CZ---1" source="unWUAu0SodUkLCjB0hvy-61" target="unWUAu0SodUkLCjB0hvy-61">
          <mxGeometry width="50" height="50" relative="1" as="geometry">
            <mxPoint x="326.3699999999999" y="319" as="sourcePoint" />
            <mxPoint x="376.3699999999999" y="269" as="targetPoint" />
          </mxGeometry>
        </mxCell>
        <mxCell id="unWUAu0SodUkLCjB0hvy-63" value="&lt;font style=&quot;font-size: 36px;&quot;&gt;MI PERFIL&lt;/font&gt;" style="text;html=1;align=center;verticalAlign=middle;whiteSpace=wrap;rounded=0;" vertex="1" parent="9zjqSW4Mfw7pOQg7CZ---1">
          <mxGeometry x="262.5" y="59" width="644.23" height="30" as="geometry" />
        </mxCell>
        <mxCell id="unWUAu0SodUkLCjB0hvy-65" value="IMAGEN DE&amp;nbsp;&lt;div&gt;USUARIO&lt;/div&gt;" style="ellipse;whiteSpace=wrap;html=1;aspect=fixed;fillColor=#f5f5f5;fontColor=#333333;strokeColor=#666666;" vertex="1" parent="9zjqSW4Mfw7pOQg7CZ---1">
          <mxGeometry x="323.2778086221161" y="149" width="163.4373563746668" height="163.4373563746668" as="geometry" />
        </mxCell>
        <mxCell id="unWUAu0SodUkLCjB0hvy-75" value="Volver" style="rounded=0;whiteSpace=wrap;html=1;" vertex="1" parent="9zjqSW4Mfw7pOQg7CZ---1">
          <mxGeometry x="30" y="140" width="120" height="42.67" as="geometry" />
        </mxCell>
        <mxCell id="unWUAu0SodUkLCjB0hvy-77" value="" style="group" connectable="0" vertex="1" parent="9zjqSW4Mfw7pOQg7CZ---1">
          <mxGeometry x="780" y="149" width="342.08" height="611" as="geometry" />
        </mxCell>
        <mxCell id="unWUAu0SodUkLCjB0hvy-78" value="" style="rounded=0;whiteSpace=wrap;html=1;" vertex="1" parent="unWUAu0SodUkLCjB0hvy-77">
          <mxGeometry width="342.08" height="611.0000000000001" as="geometry" />
        </mxCell>
        <mxCell id="unWUAu0SodUkLCjB0hvy-79" value="EVENTOS" style="rounded=0;whiteSpace=wrap;html=1;" vertex="1" parent="unWUAu0SodUkLCjB0hvy-77">
          <mxGeometry width="342.07518314378376" height="52.50781249999999" as="geometry" />
        </mxCell>
        <mxCell id="PluiQH9FJU8YFVbr0SY8-0" value="" style="endArrow=none;html=1;rounded=0;exitX=0.003;exitY=0.131;exitDx=0;exitDy=0;exitPerimeter=0;entryX=0.996;entryY=0.131;entryDx=0;entryDy=0;entryPerimeter=0;" edge="1" parent="unWUAu0SodUkLCjB0hvy-77" source="unWUAu0SodUkLCjB0hvy-78" target="unWUAu0SodUkLCjB0hvy-78">
          <mxGeometry width="50" height="50" relative="1" as="geometry">
            <mxPoint x="-254.15020472756746" y="190.07828124999997" as="sourcePoint" />
            <mxPoint x="336.7617920291893" y="79.81187499999999" as="targetPoint" />
          </mxGeometry>
        </mxCell>
        <mxCell id="PluiQH9FJU8YFVbr0SY8-2" value="Ubicación" style="text;html=1;align=center;verticalAlign=middle;whiteSpace=wrap;rounded=0;" vertex="1" parent="unWUAu0SodUkLCjB0hvy-77">
          <mxGeometry x="10" y="63.00937499999999" width="75.43557405405404" height="10.501562499999999" as="geometry" />
        </mxCell>
        <mxCell id="PluiQH9FJU8YFVbr0SY8-4" value="Fecha" style="text;html=1;align=center;verticalAlign=middle;whiteSpace=wrap;rounded=0;" vertex="1" parent="unWUAu0SodUkLCjB0hvy-77">
          <mxGeometry x="110.4502530108108" y="63.00937499999999" width="75.43557405405404" height="10.501562499999999" as="geometry" />
        </mxCell>
        <mxCell id="PluiQH9FJU8YFVbr0SY8-5" value="&lt;div&gt;Tipo de evento&lt;/div&gt;" style="text;html=1;align=center;verticalAlign=middle;whiteSpace=wrap;rounded=0;" vertex="1" parent="unWUAu0SodUkLCjB0hvy-77">
          <mxGeometry x="210" y="63.01" width="96.4" height="10.5" as="geometry" />
        </mxCell>
        <mxCell id="PluiQH9FJU8YFVbr0SY8-9" value="" style="endArrow=none;html=1;rounded=0;entryX=0.25;entryY=1;entryDx=0;entryDy=0;exitX=0.25;exitY=1;exitDx=0;exitDy=0;" edge="1" parent="unWUAu0SodUkLCjB0hvy-77">
          <mxGeometry width="50" height="50" relative="1" as="geometry">
            <mxPoint x="99.99999999999999" y="611" as="sourcePoint" />
            <mxPoint x="99.99879578594526" y="52.507812499999886" as="targetPoint" />
          </mxGeometry>
        </mxCell>
        <mxCell id="PluiQH9FJU8YFVbr0SY8-10" value="" style="endArrow=none;html=1;rounded=0;entryX=0.25;entryY=1;entryDx=0;entryDy=0;exitX=0.25;exitY=1;exitDx=0;exitDy=0;" edge="1" parent="unWUAu0SodUkLCjB0hvy-77">
          <mxGeometry width="50" height="50" relative="1" as="geometry">
            <mxPoint x="185.8810184162161" y="611.001909375" as="sourcePoint" />
            <mxPoint x="185.8810184162161" y="52.318784374999986" as="targetPoint" />
          </mxGeometry>
        </mxCell>
        <mxCell id="lZtMmR0Cg_j_G_PtJYJ1-0" value="" style="group" vertex="1" connectable="0" parent="9zjqSW4Mfw7pOQg7CZ---1">
          <mxGeometry x="50" y="350" width="700" height="411.09" as="geometry" />
        </mxCell>
        <mxCell id="unWUAu0SodUkLCjB0hvy-66" value="Nombre completo" style="rounded=0;whiteSpace=wrap;html=1;" vertex="1" parent="lZtMmR0Cg_j_G_PtJYJ1-0">
          <mxGeometry x="190" width="359.75" height="30.97" as="geometry" />
        </mxCell>
        <mxCell id="unWUAu0SodUkLCjB0hvy-67" value="Alias" style="rounded=0;whiteSpace=wrap;html=1;" vertex="1" parent="lZtMmR0Cg_j_G_PtJYJ1-0">
          <mxGeometry width="180" height="30.97" as="geometry" />
        </mxCell>
        <mxCell id="unWUAu0SodUkLCjB0hvy-69" value="Fecha alta en la Comunidad" style="rounded=0;whiteSpace=wrap;html=1;" vertex="1" parent="lZtMmR0Cg_j_G_PtJYJ1-0">
          <mxGeometry x="200" y="50.15" width="346.91" height="30.97" as="geometry" />
        </mxCell>
        <mxCell id="unWUAu0SodUkLCjB0hvy-70" value="Ciudad" style="rounded=0;whiteSpace=wrap;html=1;" vertex="1" parent="lZtMmR0Cg_j_G_PtJYJ1-0">
          <mxGeometry y="101.78" width="260" height="30.97" as="geometry" />
        </mxCell>
        <mxCell id="unWUAu0SodUkLCjB0hvy-72" value="Pais" style="rounded=0;whiteSpace=wrap;html=1;" vertex="1" parent="lZtMmR0Cg_j_G_PtJYJ1-0">
          <mxGeometry x="277.16" y="101.78" width="269.75" height="30.97" as="geometry" />
        </mxCell>
        <mxCell id="unWUAu0SodUkLCjB0hvy-74" value="División&lt;br&gt;Data" style="rounded=0;whiteSpace=wrap;html=1;" vertex="1" parent="lZtMmR0Cg_j_G_PtJYJ1-0">
          <mxGeometry x="562.45" width="137.55" height="135.76" as="geometry" />
        </mxCell>
        <mxCell id="unWUAu0SodUkLCjB0hvy-76" value="Influencia" style="rounded=0;whiteSpace=wrap;html=1;" vertex="1" parent="lZtMmR0Cg_j_G_PtJYJ1-0">
          <mxGeometry y="50.15" width="180" height="30.97" as="geometry" />
        </mxCell>
        <mxCell id="PluiQH9FJU8YFVbr0SY8-14" value="" style="group" vertex="1" connectable="0" parent="lZtMmR0Cg_j_G_PtJYJ1-0">
          <mxGeometry y="155.14999999999995" width="699.9999999999999" height="255.94000000000005" as="geometry" />
        </mxCell>
        <mxCell id="unWUAu0SodUkLCjB0hvy-73" value="Descripción" style="rounded=0;whiteSpace=wrap;html=1;" vertex="1" parent="PluiQH9FJU8YFVbr0SY8-14">
          <mxGeometry width="699.9999999999999" height="255.94" as="geometry" />
        </mxCell>
        <mxCell id="unWUAu0SodUkLCjB0hvy-80" value="Aceptar" style="shape=ext;double=1;rounded=0;whiteSpace=wrap;html=1;" vertex="1" parent="PluiQH9FJU8YFVbr0SY8-14">
          <mxGeometry x="571.3323174117477" y="205.51575757575768" width="118.18427210254903" height="38.78787878787879" as="geometry" />
        </mxCell>
      </root>
    </mxGraphModel>
  </diagram>
  <diagram id="Vy0Hlecuzng2O680sEs-" name="vContactos">
    <mxGraphModel grid="1" page="1" gridSize="10" guides="1" tooltips="1" connect="1" arrows="1" fold="1" pageScale="1" pageWidth="827" pageHeight="1169" math="0" shadow="0">
      <root>
        <mxCell id="0" />
        <mxCell id="1" parent="0" />
        <mxCell id="jwyzXveSq1PLH7waw3LB-1" value="" style="rounded=0;whiteSpace=wrap;html=1;movable=0;resizable=0;rotatable=0;deletable=0;editable=0;locked=1;connectable=0;" vertex="1" parent="1">
          <mxGeometry x="10.77" y="20" width="1139.23" height="770" as="geometry" />
        </mxCell>
        <mxCell id="jwyzXveSq1PLH7waw3LB-10" value="" style="endArrow=none;html=1;rounded=0;entryX=-0.001;entryY=0.124;entryDx=0;entryDy=0;entryPerimeter=0;exitX=0.998;exitY=0.12;exitDx=0;exitDy=0;exitPerimeter=0;" edge="1" parent="1">
          <mxGeometry width="50" height="50" relative="1" as="geometry">
            <mxPoint x="1149.4315400000005" y="109.99999999999986" as="sourcePoint" />
            <mxPoint x="11.340769999999758" y="113.08000000000001" as="targetPoint" />
          </mxGeometry>
        </mxCell>
        <mxCell id="jwyzXveSq1PLH7waw3LB-11" value="&lt;font style=&quot;font-size: 36px;&quot;&gt;Mis contactos&lt;/font&gt;" style="text;html=1;align=center;verticalAlign=middle;whiteSpace=wrap;rounded=0;" vertex="1" parent="1">
          <mxGeometry x="262" y="50" width="644.23" height="30" as="geometry" />
        </mxCell>
        <mxCell id="BMPnDbTWfMP-r4kPaplv-1" value="&lt;b&gt;&lt;font style=&quot;font-size: 18px;&quot; color=&quot;#ffffff&quot;&gt;* Tamaño de pantalla&lt;/font&gt;&lt;/b&gt;&lt;div&gt;&lt;b&gt;&lt;font style=&quot;font-size: 18px;&quot; color=&quot;#ffffff&quot;&gt;* JDIALOG (deriva de vPrincipal)&lt;/font&gt;&lt;/b&gt;&lt;/div&gt;" style="shape=note;whiteSpace=wrap;html=1;backgroundOutline=1;fontColor=#000000;darkOpacity=0.05;fillColor=#666600;strokeColor=none;fillStyle=solid;direction=west;gradientDirection=radial;gradientColor=none;shadow=1;size=20;pointerEvents=1;" vertex="1" parent="1">
          <mxGeometry x="1180" y="50" width="210" height="130" as="geometry" />
        </mxCell>
        <mxCell id="T_3ELr0YAW5bE1jftq15-4" value="" style="group" vertex="1" connectable="0" parent="1">
          <mxGeometry x="14" y="140" width="820" height="650" as="geometry" />
        </mxCell>
        <mxCell id="GgGkuNc34m16ssQfIS7Q-2" value="" style="group;fontSize=9;" connectable="0" vertex="1" parent="T_3ELr0YAW5bE1jftq15-4">
          <mxGeometry width="820" height="650" as="geometry" />
        </mxCell>
        <mxCell id="Q4-Q45KCIFIdYwqi_50s-2" value="IMAGEN DEL&amp;nbsp;&lt;div&gt;CONTACTO&lt;/div&gt;" style="ellipse;whiteSpace=wrap;html=1;aspect=fixed;fillColor=#f5f5f5;fontColor=#333333;strokeColor=#666666;" vertex="1" parent="GgGkuNc34m16ssQfIS7Q-2">
          <mxGeometry x="300" y="10" width="162.23" height="162.23" as="geometry" />
        </mxCell>
        <mxCell id="Q4-Q45KCIFIdYwqi_50s-3" value="Nombre" style="rounded=0;whiteSpace=wrap;html=1;" vertex="1" parent="GgGkuNc34m16ssQfIS7Q-2">
          <mxGeometry x="43.33000000000001" y="309.51" width="358" height="30.97" as="geometry" />
        </mxCell>
        <mxCell id="Q4-Q45KCIFIdYwqi_50s-4" value="Alias" style="rounded=0;whiteSpace=wrap;html=1;" vertex="1" parent="GgGkuNc34m16ssQfIS7Q-2">
          <mxGeometry x="43.33" y="212" width="166.67" height="30.97" as="geometry" />
        </mxCell>
        <mxCell id="Q4-Q45KCIFIdYwqi_50s-10" value="Descripción" style="rounded=0;whiteSpace=wrap;html=1;" vertex="1" parent="GgGkuNc34m16ssQfIS7Q-2">
          <mxGeometry x="43.33" y="360" width="686.67" height="130" as="geometry" />
        </mxCell>
        <mxCell id="Q4-Q45KCIFIdYwqi_50s-15" value="Proponer trato" style="rounded=0;whiteSpace=wrap;html=1;" vertex="1" parent="GgGkuNc34m16ssQfIS7Q-2">
          <mxGeometry x="80" y="520" width="156" height="30.97" as="geometry" />
        </mxCell>
        <mxCell id="lKcP1f-cO5PqQ0KkeBgU-1" value="Romper trato seleccionado" style="rounded=0;whiteSpace=wrap;html=1;" vertex="1" parent="GgGkuNc34m16ssQfIS7Q-2">
          <mxGeometry x="295.76000000000005" y="520" width="181.82" height="30.97" as="geometry" />
        </mxCell>
        <mxCell id="lKcP1f-cO5PqQ0KkeBgU-7" value="Guardar edición" style="rounded=0;whiteSpace=wrap;html=1;" vertex="1" parent="GgGkuNc34m16ssQfIS7Q-2">
          <mxGeometry x="540" y="520" width="156" height="30.97" as="geometry" />
        </mxCell>
        <mxCell id="lKcP1f-cO5PqQ0KkeBgU-9" value="&lt;span style=&quot;color: rgb(0, 0, 0); font-family: Helvetica; font-size: 10px; font-style: normal; font-variant-ligatures: normal; font-variant-caps: normal; font-weight: 400; letter-spacing: normal; orphans: 2; text-align: center; text-indent: 0px; text-transform: none; widows: 2; word-spacing: 0px; -webkit-text-stroke-width: 0px; white-space: normal; background-color: rgb(251, 251, 251); text-decoration-thickness: initial; text-decoration-style: initial; text-decoration-color: initial; display: inline !important; float: none;&quot;&gt;Por si acaso se cambia algún dato (menos el alias, que es inmutable)&lt;/span&gt;" style="text;whiteSpace=wrap;html=1;" vertex="1" parent="GgGkuNc34m16ssQfIS7Q-2">
          <mxGeometry x="462.23" y="490" width="324" height="40" as="geometry" />
        </mxCell>
        <mxCell id="AVq60OyqunWhJLGvD3_d-8" value="ELIMINAR" style="rounded=0;whiteSpace=wrap;html=1;fillColor=#fad9d5;strokeColor=#ae4132;fontSize=18;" vertex="1" parent="GgGkuNc34m16ssQfIS7Q-2">
          <mxGeometry x="43.33" y="580" width="140" height="50" as="geometry" />
        </mxCell>
        <mxCell id="lKcP1f-cO5PqQ0KkeBgU-2" value="Teléfono" style="rounded=0;whiteSpace=wrap;html=1;" vertex="1" parent="GgGkuNc34m16ssQfIS7Q-2">
          <mxGeometry x="43.33" y="261" width="288" height="30.97" as="geometry" />
        </mxCell>
        <mxCell id="lKcP1f-cO5PqQ0KkeBgU-3" value="Tratos (estará en blanco o pondrá el id y el tipo de trato de los tratos que existan asociados a este acólito)" style="rounded=0;whiteSpace=wrap;html=1;" vertex="1" parent="T_3ELr0YAW5bE1jftq15-4">
          <mxGeometry x="430" y="210" width="300" height="136" as="geometry" />
        </mxCell>
        <mxCell id="T_3ELr0YAW5bE1jftq15-1" value="Volver" style="rounded=0;whiteSpace=wrap;html=1;" vertex="1" parent="T_3ELr0YAW5bE1jftq15-4">
          <mxGeometry x="16" y="-10" width="120" height="42.67" as="geometry" />
        </mxCell>
        <mxCell id="T_3ELr0YAW5bE1jftq15-5" value="" style="group" vertex="1" connectable="0" parent="1">
          <mxGeometry x="790" y="130" width="350" height="650" as="geometry" />
        </mxCell>
        <mxCell id="jwyzXveSq1PLH7waw3LB-9" value="&lt;div&gt;LISTA DE CONTACTOS. Solo estará el alias escrito. Una vez se clique, la información se cargará a la izquierda&lt;/div&gt;" style="rounded=0;whiteSpace=wrap;html=1;" vertex="1" parent="T_3ELr0YAW5bE1jftq15-5">
          <mxGeometry width="350" height="650" as="geometry" />
        </mxCell>
        <mxCell id="lKcP1f-cO5PqQ0KkeBgU-6" value="AÑADIR CONTACTO" style="rounded=0;whiteSpace=wrap;html=1;fillColor=#A1FA1B;strokeColor=#87AE07;fontSize=18;" vertex="1" parent="T_3ELr0YAW5bE1jftq15-5">
          <mxGeometry x="10.32" y="590" width="329.68" height="49.97" as="geometry" />
        </mxCell>
        <mxCell id="jFg3sZJ-ieuz9rEHa2X4-3" value="" style="endArrow=none;html=1;rounded=0;exitX=0.001;exitY=0.093;exitDx=0;exitDy=0;exitPerimeter=0;entryX=1.009;entryY=0.091;entryDx=0;entryDy=0;entryPerimeter=0;" edge="1" parent="T_3ELr0YAW5bE1jftq15-5">
          <mxGeometry width="50" height="50" relative="1" as="geometry">
            <mxPoint y="41" as="sourcePoint" />
            <mxPoint x="353" y="40" as="targetPoint" />
          </mxGeometry>
        </mxCell>
        <mxCell id="jFg3sZJ-ieuz9rEHa2X4-4" value="&lt;font style=&quot;font-size: 18px;&quot;&gt;Alias&lt;/font&gt;" style="text;html=1;align=center;verticalAlign=middle;whiteSpace=wrap;rounded=0;" vertex="1" parent="T_3ELr0YAW5bE1jftq15-5">
          <mxGeometry x="145" y="10" width="60" height="20" as="geometry" />
        </mxCell>
        <mxCell id="AVq60OyqunWhJLGvD3_d-12" value="Al pulsar el añadir contecto, se limpian todos los campos y se cambia guardar edición por guardar para añadir un nuevo contacto." style="shape=note;whiteSpace=wrap;html=1;backgroundOutline=1;darkOpacity=0.05;fillColor=#666600;fontColor=#ffffff;strokeColor=#6F0000;" vertex="1" parent="1">
          <mxGeometry x="1170" y="520" width="190" height="270" as="geometry" />
        </mxCell>
      </root>
    </mxGraphModel>
  </diagram>
  <diagram name="vAcolitos" id="wLXfAw6lWXoaxc_wgfXS">
    <mxGraphModel grid="1" page="1" gridSize="10" guides="1" tooltips="1" connect="1" arrows="1" fold="1" pageScale="1" pageWidth="827" pageHeight="1169" math="0" shadow="0">
      <root>
        <mxCell id="8xZ-c050mkaYKpj9HawM-0" />
        <mxCell id="8xZ-c050mkaYKpj9HawM-1" parent="8xZ-c050mkaYKpj9HawM-0" />
        <mxCell id="8xZ-c050mkaYKpj9HawM-2" value="" style="rounded=0;whiteSpace=wrap;html=1;movable=0;resizable=0;rotatable=0;deletable=0;editable=0;locked=1;connectable=0;" vertex="1" parent="8xZ-c050mkaYKpj9HawM-1">
          <mxGeometry x="10.77" y="20" width="1139.23" height="770" as="geometry" />
        </mxCell>
        <mxCell id="8xZ-c050mkaYKpj9HawM-3" value="" style="endArrow=none;html=1;rounded=0;entryX=-0.001;entryY=0.124;entryDx=0;entryDy=0;entryPerimeter=0;exitX=0.998;exitY=0.12;exitDx=0;exitDy=0;exitPerimeter=0;" edge="1" parent="8xZ-c050mkaYKpj9HawM-1">
          <mxGeometry width="50" height="50" relative="1" as="geometry">
            <mxPoint x="1149.4315400000005" y="109.99999999999986" as="sourcePoint" />
            <mxPoint x="11.340769999999758" y="113.08000000000001" as="targetPoint" />
          </mxGeometry>
        </mxCell>
        <mxCell id="8xZ-c050mkaYKpj9HawM-4" value="&lt;font style=&quot;font-size: 36px;&quot;&gt;ACÓLITOS&lt;/font&gt;" style="text;html=1;align=center;verticalAlign=middle;whiteSpace=wrap;rounded=0;" vertex="1" parent="8xZ-c050mkaYKpj9HawM-1">
          <mxGeometry x="262" y="50" width="644.23" height="30" as="geometry" />
        </mxCell>
        <mxCell id="8xZ-c050mkaYKpj9HawM-5" value="&lt;b&gt;&lt;font style=&quot;font-size: 18px;&quot; color=&quot;#ffffff&quot;&gt;* Tamaño de pantalla&lt;/font&gt;&lt;/b&gt;&lt;div&gt;&lt;b&gt;&lt;font style=&quot;font-size: 18px;&quot; color=&quot;#ffffff&quot;&gt;* JDIALOG (deriva de vPrincipal)&lt;/font&gt;&lt;/b&gt;&lt;/div&gt;" style="shape=note;whiteSpace=wrap;html=1;backgroundOutline=1;fontColor=#000000;darkOpacity=0.05;fillColor=#666600;strokeColor=none;fillStyle=solid;direction=west;gradientDirection=radial;gradientColor=none;shadow=1;size=20;pointerEvents=1;" vertex="1" parent="8xZ-c050mkaYKpj9HawM-1">
          <mxGeometry x="1180" y="50" width="210" height="130" as="geometry" />
        </mxCell>
        <mxCell id="8xZ-c050mkaYKpj9HawM-6" value="" style="group" connectable="0" vertex="1" parent="8xZ-c050mkaYKpj9HawM-1">
          <mxGeometry x="13" y="142" width="820" height="650" as="geometry" />
        </mxCell>
        <mxCell id="8xZ-c050mkaYKpj9HawM-7" value="" style="group;fontSize=9;" connectable="0" vertex="1" parent="8xZ-c050mkaYKpj9HawM-6">
          <mxGeometry x="-2" width="820" height="650" as="geometry" />
        </mxCell>
        <mxCell id="8xZ-c050mkaYKpj9HawM-8" value="IMAGEN DEL&amp;nbsp;&lt;div&gt;ACÓLITO&lt;/div&gt;" style="ellipse;whiteSpace=wrap;html=1;aspect=fixed;fillColor=#f5f5f5;fontColor=#333333;strokeColor=#666666;" vertex="1" parent="8xZ-c050mkaYKpj9HawM-7">
          <mxGeometry x="196.33" y="-10" width="150" height="150" as="geometry" />
        </mxCell>
        <mxCell id="8xZ-c050mkaYKpj9HawM-9" value="Nombre Completo" style="rounded=0;whiteSpace=wrap;html=1;" vertex="1" parent="8xZ-c050mkaYKpj9HawM-7">
          <mxGeometry x="185.07" y="162" width="266.67" height="30.97" as="geometry" />
        </mxCell>
        <mxCell id="8xZ-c050mkaYKpj9HawM-10" value="Alias" style="rounded=0;whiteSpace=wrap;html=1;" vertex="1" parent="8xZ-c050mkaYKpj9HawM-7">
          <mxGeometry x="22" y="162" width="148" height="32" as="geometry" />
        </mxCell>
        <mxCell id="8xZ-c050mkaYKpj9HawM-11" value="Descripción" style="rounded=0;whiteSpace=wrap;html=1;" vertex="1" parent="8xZ-c050mkaYKpj9HawM-7">
          <mxGeometry x="22" y="360" width="748" height="200" as="geometry" />
        </mxCell>
        <mxCell id="8xZ-c050mkaYKpj9HawM-15" value="Guardar edición" style="rounded=0;whiteSpace=wrap;html=1;" vertex="1" parent="8xZ-c050mkaYKpj9HawM-7">
          <mxGeometry x="614" y="599.03" width="156" height="30.97" as="geometry" />
        </mxCell>
        <mxCell id="8xZ-c050mkaYKpj9HawM-16" value="&lt;span style=&quot;color: rgb(0, 0, 0); font-family: Helvetica; font-size: 10px; font-style: normal; font-variant-ligatures: normal; font-variant-caps: normal; font-weight: 400; letter-spacing: normal; orphans: 2; text-align: center; text-indent: 0px; text-transform: none; widows: 2; word-spacing: 0px; -webkit-text-stroke-width: 0px; white-space: normal; background-color: rgb(251, 251, 251); text-decoration-thickness: initial; text-decoration-style: initial; text-decoration-color: initial; display: inline !important; float: none;&quot;&gt;Por si acaso se cambia algún dato (menos el alias, que es inmutable)&lt;/span&gt;" style="text;whiteSpace=wrap;html=1;" vertex="1" parent="8xZ-c050mkaYKpj9HawM-7">
          <mxGeometry x="462.23" y="571" width="324" height="28" as="geometry" />
        </mxCell>
        <mxCell id="8xZ-c050mkaYKpj9HawM-17" value="ELIMINAR" style="rounded=0;whiteSpace=wrap;html=1;fillColor=#fad9d5;strokeColor=#ae4132;fontSize=18;" vertex="1" parent="8xZ-c050mkaYKpj9HawM-7">
          <mxGeometry x="20.33" y="580" width="140" height="50" as="geometry" />
        </mxCell>
        <mxCell id="8xZ-c050mkaYKpj9HawM-18" value="Teléfono" style="rounded=0;whiteSpace=wrap;html=1;" vertex="1" parent="8xZ-c050mkaYKpj9HawM-7">
          <mxGeometry x="185.07" y="208" width="264.93" height="30.97" as="geometry" />
        </mxCell>
        <mxCell id="HC__A8KtATUxabZYD-lW-0" value="Influencia" style="rounded=0;whiteSpace=wrap;html=1;" vertex="1" parent="8xZ-c050mkaYKpj9HawM-7">
          <mxGeometry x="23.33" y="208" width="146.67" height="30.97" as="geometry" />
        </mxCell>
        <mxCell id="jZkWz8yFpZMazfo3ImkC-1" value="Ciudad" style="rounded=0;whiteSpace=wrap;html=1;" vertex="1" parent="8xZ-c050mkaYKpj9HawM-7">
          <mxGeometry x="23.33" y="309.52" width="146.67" height="30.97" as="geometry" />
        </mxCell>
        <mxCell id="jZkWz8yFpZMazfo3ImkC-0" value="Fecha alta en la Comunidad" style="rounded=0;whiteSpace=wrap;html=1;" vertex="1" parent="8xZ-c050mkaYKpj9HawM-7">
          <mxGeometry x="340" y="309.52" width="110" height="30.97" as="geometry" />
        </mxCell>
        <mxCell id="jZkWz8yFpZMazfo3ImkC-3" value="Pais" style="rounded=0;whiteSpace=wrap;html=1;" vertex="1" parent="8xZ-c050mkaYKpj9HawM-7">
          <mxGeometry x="185.07" y="309.51" width="139.91" height="30.97" as="geometry" />
        </mxCell>
        <mxCell id="6iVw-qnffEArtsjHPrUB-0" value="Nombre división" style="rounded=0;whiteSpace=wrap;html=1;" vertex="1" parent="8xZ-c050mkaYKpj9HawM-7">
          <mxGeometry x="20.33" y="260" width="239.67" height="30.97" as="geometry" />
        </mxCell>
        <mxCell id="jZkWz8yFpZMazfo3ImkC-24" value="Jefe a cargo" style="rounded=0;whiteSpace=wrap;html=1;" vertex="1" parent="8xZ-c050mkaYKpj9HawM-7">
          <mxGeometry x="270" y="260" width="180" height="30.97" as="geometry" />
        </mxCell>
        <mxCell id="8xZ-c050mkaYKpj9HawM-19" value="Eventos en los que participa" style="rounded=0;whiteSpace=wrap;html=1;" vertex="1" parent="8xZ-c050mkaYKpj9HawM-6">
          <mxGeometry x="467" y="160" width="300" height="180" as="geometry" />
        </mxCell>
        <mxCell id="8xZ-c050mkaYKpj9HawM-20" value="Volver" style="rounded=0;whiteSpace=wrap;html=1;" vertex="1" parent="8xZ-c050mkaYKpj9HawM-6">
          <mxGeometry x="16" y="-10" width="120" height="42.67" as="geometry" />
        </mxCell>
        <mxCell id="8xZ-c050mkaYKpj9HawM-21" value="" style="group" connectable="0" vertex="1" parent="8xZ-c050mkaYKpj9HawM-1">
          <mxGeometry x="790" y="121" width="350" height="650" as="geometry" />
        </mxCell>
        <mxCell id="8xZ-c050mkaYKpj9HawM-22" value="&lt;div&gt;LISTA DE ACÓLITOS&lt;span style=&quot;background-color: initial;&quot;&gt;. Solo estará el alias escrito. Una vez se clique, la información se cargará a la izquierda&lt;/span&gt;&lt;/div&gt;" style="rounded=0;whiteSpace=wrap;html=1;" vertex="1" parent="8xZ-c050mkaYKpj9HawM-21">
          <mxGeometry width="350" height="650" as="geometry" />
        </mxCell>
        <mxCell id="8xZ-c050mkaYKpj9HawM-23" value="AÑADIR ACÓLITO" style="rounded=0;whiteSpace=wrap;html=1;fillColor=#A1FA1B;strokeColor=#87AE07;fontSize=18;" vertex="1" parent="8xZ-c050mkaYKpj9HawM-21">
          <mxGeometry x="10.32" y="590" width="329.68" height="49.97" as="geometry" />
        </mxCell>
        <mxCell id="8xZ-c050mkaYKpj9HawM-24" value="" style="endArrow=none;html=1;rounded=0;exitX=0.001;exitY=0.093;exitDx=0;exitDy=0;exitPerimeter=0;entryX=1.009;entryY=0.091;entryDx=0;entryDy=0;entryPerimeter=0;" edge="1" parent="8xZ-c050mkaYKpj9HawM-21">
          <mxGeometry width="50" height="50" relative="1" as="geometry">
            <mxPoint y="41" as="sourcePoint" />
            <mxPoint x="353" y="40" as="targetPoint" />
          </mxGeometry>
        </mxCell>
        <mxCell id="8xZ-c050mkaYKpj9HawM-25" value="&lt;font style=&quot;font-size: 18px;&quot;&gt;Alias&lt;/font&gt;" style="text;html=1;align=center;verticalAlign=middle;whiteSpace=wrap;rounded=0;" vertex="1" parent="8xZ-c050mkaYKpj9HawM-21">
          <mxGeometry x="145" y="10" width="60" height="20" as="geometry" />
        </mxCell>
        <mxCell id="8xZ-c050mkaYKpj9HawM-26" value="Al pulsar el añadir acólito, se limpian todos los campos y se cambia guardar edición por guardar para añadir un nuevo contacto." style="shape=note;whiteSpace=wrap;html=1;backgroundOutline=1;darkOpacity=0.05;fillColor=#666600;fontColor=#ffffff;strokeColor=#6F0000;" vertex="1" parent="8xZ-c050mkaYKpj9HawM-1">
          <mxGeometry x="1170" y="520" width="190" height="270" as="geometry" />
        </mxCell>
      </root>
    </mxGraphModel>
  </diagram>
  <diagram name="vPropiedades" id="CaEMn6kyqGTvOE_Jblgg">
    <mxGraphModel grid="1" page="1" gridSize="10" guides="1" tooltips="1" connect="1" arrows="1" fold="1" pageScale="1" pageWidth="827" pageHeight="1169" math="0" shadow="0">
      <root>
        <mxCell id="Aazvaqytahu1_J0gRqQf-0" />
        <mxCell id="Aazvaqytahu1_J0gRqQf-1" parent="Aazvaqytahu1_J0gRqQf-0" />
        <mxCell id="Aazvaqytahu1_J0gRqQf-2" value="" style="rounded=0;whiteSpace=wrap;html=1;movable=0;resizable=0;rotatable=0;deletable=0;editable=0;locked=1;connectable=0;" vertex="1" parent="Aazvaqytahu1_J0gRqQf-1">
          <mxGeometry x="10.77" y="20" width="1139.23" height="770" as="geometry" />
        </mxCell>
        <mxCell id="Aazvaqytahu1_J0gRqQf-3" value="" style="endArrow=none;html=1;rounded=0;entryX=-0.001;entryY=0.124;entryDx=0;entryDy=0;entryPerimeter=0;exitX=0.998;exitY=0.12;exitDx=0;exitDy=0;exitPerimeter=0;" edge="1" parent="Aazvaqytahu1_J0gRqQf-1">
          <mxGeometry width="50" height="50" relative="1" as="geometry">
            <mxPoint x="1149.4315400000005" y="109.99999999999986" as="sourcePoint" />
            <mxPoint x="11.340769999999758" y="113.08000000000001" as="targetPoint" />
          </mxGeometry>
        </mxCell>
        <mxCell id="Aazvaqytahu1_J0gRqQf-4" value="&lt;font style=&quot;font-size: 36px;&quot;&gt;PROPIEDADES&lt;/font&gt;" style="text;html=1;align=center;verticalAlign=middle;whiteSpace=wrap;rounded=0;" vertex="1" parent="Aazvaqytahu1_J0gRqQf-1">
          <mxGeometry x="262" y="50" width="644.23" height="30" as="geometry" />
        </mxCell>
        <mxCell id="ZAeVtxjlqDnLihvKzlVL-0" value="&lt;b&gt;&lt;font style=&quot;font-size: 18px;&quot; color=&quot;#ffffff&quot;&gt;* Tamaño de pantalla&lt;/font&gt;&lt;/b&gt;&lt;div&gt;&lt;b&gt;&lt;font style=&quot;font-size: 18px;&quot; color=&quot;#ffffff&quot;&gt;* JDIALOG (deriva de vPrincipal)&lt;/font&gt;&lt;/b&gt;&lt;/div&gt;" style="shape=note;whiteSpace=wrap;html=1;backgroundOutline=1;fontColor=#000000;darkOpacity=0.05;fillColor=#666600;strokeColor=none;fillStyle=solid;direction=west;gradientDirection=radial;gradientColor=none;shadow=1;size=20;pointerEvents=1;" vertex="1" parent="Aazvaqytahu1_J0gRqQf-1">
          <mxGeometry x="1180" y="50" width="210" height="130" as="geometry" />
        </mxCell>
        <mxCell id="Aazvaqytahu1_J0gRqQf-19" value="Evento en el cual está siendo usada la propiedad" style="rounded=0;whiteSpace=wrap;html=1;" vertex="1" parent="Aazvaqytahu1_J0gRqQf-1">
          <mxGeometry x="384.22" y="310" width="258.29" height="360" as="geometry" />
        </mxCell>
        <mxCell id="Aazvaqytahu1_J0gRqQf-20" value="Volver" style="rounded=0;whiteSpace=wrap;html=1;" vertex="1" parent="Aazvaqytahu1_J0gRqQf-1">
          <mxGeometry x="27.77560975609756" y="130" width="103.3170731707317" height="42.67" as="geometry" />
        </mxCell>
        <mxCell id="Aazvaqytahu1_J0gRqQf-8" value="IMAGEN DE LA PROPIEDAD" style="ellipse;whiteSpace=wrap;html=1;aspect=fixed;fillColor=#f5f5f5;fontColor=#333333;strokeColor=#666666;" vertex="1" parent="Aazvaqytahu1_J0gRqQf-1">
          <mxGeometry x="272.29268292682923" y="150" width="139.6760731707317" height="139.6760731707317" as="geometry" />
        </mxCell>
        <mxCell id="Aazvaqytahu1_J0gRqQf-9" value="INFORMACIÓN ADICIONAL DEPENDIENTE DEL TIPO DE PROPIEDAD" style="rounded=0;whiteSpace=wrap;html=1;" vertex="1" parent="Aazvaqytahu1_J0gRqQf-1">
          <mxGeometry x="40" y="410" width="322.69" height="260" as="geometry" />
        </mxCell>
        <mxCell id="Aazvaqytahu1_J0gRqQf-10" value="IDPropiedad" style="rounded=0;whiteSpace=wrap;html=1;" vertex="1" parent="Aazvaqytahu1_J0gRqQf-1">
          <mxGeometry x="39.8260731707317" y="310" width="143.4988048780488" height="30.97" as="geometry" />
        </mxCell>
        <mxCell id="Aazvaqytahu1_J0gRqQf-15" value="Guardar edición" style="rounded=0;whiteSpace=wrap;html=1;" vertex="1" parent="Aazvaqytahu1_J0gRqQf-1">
          <mxGeometry x="508.19682926829273" y="689.03" width="134.31219512195122" height="30.97" as="geometry" />
        </mxCell>
        <mxCell id="Aazvaqytahu1_J0gRqQf-16" value="&lt;span style=&quot;color: rgb(0, 0, 0); font-family: Helvetica; font-size: 10px; font-style: normal; font-variant-ligatures: normal; font-variant-caps: normal; font-weight: 400; letter-spacing: normal; orphans: 2; text-align: center; text-indent: 0px; text-transform: none; widows: 2; word-spacing: 0px; -webkit-text-stroke-width: 0px; white-space: normal; background-color: rgb(251, 251, 251); text-decoration-thickness: initial; text-decoration-style: initial; text-decoration-color: initial; display: inline !important; float: none;&quot;&gt;Por si acaso se cambia algún dato (menos el IDPropiedad, que es inmutable)&lt;/span&gt;" style="text;whiteSpace=wrap;html=1;" vertex="1" parent="Aazvaqytahu1_J0gRqQf-1">
          <mxGeometry x="452.51" y="725" width="190" height="40" as="geometry" />
        </mxCell>
        <mxCell id="Aazvaqytahu1_J0gRqQf-17" value="ELIMINAR" style="rounded=0;whiteSpace=wrap;html=1;fillColor=#fad9d5;strokeColor=#ae4132;fontSize=18;" vertex="1" parent="Aazvaqytahu1_J0gRqQf-1">
          <mxGeometry x="51.30607317073171" y="720" width="120.53658536585365" height="50" as="geometry" />
        </mxCell>
        <mxCell id="Aazvaqytahu1_J0gRqQf-18" value="Tipo" style="rounded=0;whiteSpace=wrap;html=1;" vertex="1" parent="Aazvaqytahu1_J0gRqQf-1">
          <mxGeometry x="198.69" y="310" width="164" height="30.97" as="geometry" />
        </mxCell>
        <mxCell id="PtAG3Rnn-2zJAWkwDLZd-0" value="Valor actual" style="rounded=0;whiteSpace=wrap;html=1;" vertex="1" parent="Aazvaqytahu1_J0gRqQf-1">
          <mxGeometry x="39.996073170731705" y="360" width="143.4988048780488" height="30.97" as="geometry" />
        </mxCell>
        <mxCell id="PtAG3Rnn-2zJAWkwDLZd-1" value="Ubicación" style="rounded=0;whiteSpace=wrap;html=1;" vertex="1" parent="Aazvaqytahu1_J0gRqQf-1">
          <mxGeometry x="198.85999999999999" y="360" width="164" height="30.97" as="geometry" />
        </mxCell>
        <mxCell id="PwAUPtnSZM6F10-WtGwo-5" value="" style="group" vertex="1" connectable="0" parent="Aazvaqytahu1_J0gRqQf-1">
          <mxGeometry x="790" y="130" width="350" height="650" as="geometry" />
        </mxCell>
        <mxCell id="Aazvaqytahu1_J0gRqQf-21" value="" style="group;fontSize=11;" connectable="0" vertex="1" parent="PwAUPtnSZM6F10-WtGwo-5">
          <mxGeometry width="350" height="647.0137825421133" as="geometry" />
        </mxCell>
        <mxCell id="Aazvaqytahu1_J0gRqQf-22" value="Toda la información de la propiedad que se seleccione aparecerá a la izquierda" style="rounded=0;whiteSpace=wrap;html=1;" vertex="1" parent="Aazvaqytahu1_J0gRqQf-21">
          <mxGeometry x="-130" width="480" height="647.0137825421133" as="geometry" />
        </mxCell>
        <mxCell id="Aazvaqytahu1_J0gRqQf-24" value="" style="endArrow=none;html=1;rounded=0;exitX=0;exitY=0.061;exitDx=0;exitDy=0;exitPerimeter=0;entryX=1.009;entryY=0.091;entryDx=0;entryDy=0;entryPerimeter=0;" edge="1" parent="Aazvaqytahu1_J0gRqQf-21" source="Aazvaqytahu1_J0gRqQf-22">
          <mxGeometry width="50" height="50" relative="1" as="geometry">
            <mxPoint y="40.81163859111792" as="sourcePoint" />
            <mxPoint x="353" y="39.81623277182236" as="targetPoint" />
          </mxGeometry>
        </mxCell>
        <mxCell id="cX2egDwZVufUwm11nOqw-3" value="Tipo" style="text;html=1;align=center;verticalAlign=middle;whiteSpace=wrap;rounded=0;fontSize=17;" vertex="1" parent="Aazvaqytahu1_J0gRqQf-21">
          <mxGeometry x="160" y="9.95405819295559" width="60" height="19.90811638591118" as="geometry" />
        </mxCell>
        <mxCell id="cX2egDwZVufUwm11nOqw-6" value="Nombre" style="text;html=1;align=center;verticalAlign=middle;whiteSpace=wrap;rounded=0;fontSize=17;" vertex="1" parent="Aazvaqytahu1_J0gRqQf-21">
          <mxGeometry x="50" y="9.95405819295559" width="60" height="19.90811638591118" as="geometry" />
        </mxCell>
        <mxCell id="XwHG-wB3dOPi5ay8cXaD-0" value="Ubicación" style="text;html=1;align=center;verticalAlign=middle;whiteSpace=wrap;rounded=0;fontSize=17;" vertex="1" parent="Aazvaqytahu1_J0gRqQf-21">
          <mxGeometry x="260" y="9.95405819295559" width="60" height="19.90811638591118" as="geometry" />
        </mxCell>
        <mxCell id="PwAUPtnSZM6F10-WtGwo-1" value="" style="endArrow=none;html=1;rounded=0;exitX=0;exitY=0;exitDx=0;exitDy=0;entryX=0.272;entryY=1.005;entryDx=0;entryDy=0;entryPerimeter=0;" edge="1" parent="Aazvaqytahu1_J0gRqQf-21">
          <mxGeometry width="50" height="50" relative="1" as="geometry">
            <mxPoint x="150" as="sourcePoint" />
            <mxPoint x="151" y="650" as="targetPoint" />
          </mxGeometry>
        </mxCell>
        <mxCell id="PwAUPtnSZM6F10-WtGwo-2" value="" style="endArrow=none;html=1;rounded=0;exitX=0;exitY=0;exitDx=0;exitDy=0;entryX=0.272;entryY=1.005;entryDx=0;entryDy=0;entryPerimeter=0;" edge="1" parent="Aazvaqytahu1_J0gRqQf-21">
          <mxGeometry width="50" height="50" relative="1" as="geometry">
            <mxPoint x="230" y="-1.4931087289433385" as="sourcePoint" />
            <mxPoint x="231" y="648.5068912710567" as="targetPoint" />
          </mxGeometry>
        </mxCell>
        <mxCell id="Aazvaqytahu1_J0gRqQf-25" value="&lt;font style=&quot;font-size: 16px;&quot;&gt;IDPropiedad&lt;/font&gt;" style="text;html=1;align=center;verticalAlign=middle;whiteSpace=wrap;rounded=0;" vertex="1" parent="Aazvaqytahu1_J0gRqQf-21">
          <mxGeometry x="-100" y="9.95405819295559" width="60" height="19.90811638591118" as="geometry" />
        </mxCell>
        <mxCell id="Aazvaqytahu1_J0gRqQf-23" value="AÑADIR PROPIEDAD" style="rounded=0;whiteSpace=wrap;html=1;fillColor=#A1FA1B;strokeColor=#87AE07;fontSize=18;" vertex="1" parent="Aazvaqytahu1_J0gRqQf-21">
          <mxGeometry x="-120" y="590" width="460" height="49.97" as="geometry" />
        </mxCell>
        <mxCell id="PwAUPtnSZM6F10-WtGwo-4" value="" style="endArrow=none;html=1;rounded=0;exitX=0;exitY=0;exitDx=0;exitDy=0;entryX=0.272;entryY=1.005;entryDx=0;entryDy=0;entryPerimeter=0;" edge="1" parent="PwAUPtnSZM6F10-WtGwo-5">
          <mxGeometry width="50" height="50" relative="1" as="geometry">
            <mxPoint as="sourcePoint" />
            <mxPoint x="1" y="650" as="targetPoint" />
          </mxGeometry>
        </mxCell>
      </root>
    </mxGraphModel>
  </diagram>
  <diagram id="iWqz_c4K1UjRSBmVoRrs" name="vEliminacion">
    <mxGraphModel dx="935" dy="528" grid="1" gridSize="10" guides="1" tooltips="1" connect="1" arrows="1" fold="1" page="1" pageScale="1" pageWidth="827" pageHeight="1169" math="0" shadow="0">
      <root>
        <mxCell id="0" />
        <mxCell id="1" parent="0" />
        <mxCell id="G7sCdzzIw9B3U6YbMwJ8-1" value="" style="rounded=0;whiteSpace=wrap;html=1;" vertex="1" parent="1">
          <mxGeometry x="160" y="50" width="490" height="270" as="geometry" />
        </mxCell>
        <mxCell id="G7sCdzzIw9B3U6YbMwJ8-2" value="" style="endArrow=none;html=1;rounded=0;exitX=-0.001;exitY=0.152;exitDx=0;exitDy=0;exitPerimeter=0;entryX=0.997;entryY=0.155;entryDx=0;entryDy=0;entryPerimeter=0;" edge="1" parent="1" source="G7sCdzzIw9B3U6YbMwJ8-1" target="G7sCdzzIw9B3U6YbMwJ8-1">
          <mxGeometry width="50" height="50" relative="1" as="geometry">
            <mxPoint x="370" y="250" as="sourcePoint" />
            <mxPoint x="420" y="200" as="targetPoint" />
          </mxGeometry>
        </mxCell>
        <mxCell id="G7sCdzzIw9B3U6YbMwJ8-3" value="Confirmar eliminación" style="text;html=1;align=center;verticalAlign=middle;whiteSpace=wrap;rounded=0;" vertex="1" parent="1">
          <mxGeometry x="325" y="60" width="160" height="20" as="geometry" />
        </mxCell>
        <mxCell id="rNxKdACG_PjkrBthhktr-2" value="¿Deseas eliminar esta información de la base de datos?" style="rounded=1;whiteSpace=wrap;html=1;" vertex="1" parent="1">
          <mxGeometry x="290" y="130" width="230" height="60" as="geometry" />
        </mxCell>
        <mxCell id="rNxKdACG_PjkrBthhktr-3" value="Sí" style="rounded=0;whiteSpace=wrap;html=1;" vertex="1" parent="1">
          <mxGeometry x="240" y="220" width="120" height="30" as="geometry" />
        </mxCell>
        <mxCell id="rNxKdACG_PjkrBthhktr-4" value="No" style="rounded=0;whiteSpace=wrap;html=1;" vertex="1" parent="1">
          <mxGeometry x="440" y="220" width="120" height="30" as="geometry" />
        </mxCell>
        <mxCell id="t4Gsq-gIl4ggQkCJHOvn-1" value="&lt;b&gt;&lt;font style=&quot;font-size: 18px;&quot; color=&quot;#ffffff&quot;&gt;* Tamaño pequeño&lt;/font&gt;&lt;/b&gt;&lt;div&gt;&lt;b&gt;&lt;font style=&quot;font-size: 18px;&quot; color=&quot;#ffffff&quot;&gt;* JDIALOG (deriva de la página en la que se presione el botón &quot;eliminar x&quot;)&lt;/font&gt;&lt;/b&gt;&lt;/div&gt;" style="shape=note;whiteSpace=wrap;html=1;backgroundOutline=1;fontColor=#000000;darkOpacity=0.05;fillColor=#666600;strokeColor=none;fillStyle=solid;direction=west;gradientDirection=radial;gradientColor=none;shadow=1;size=20;pointerEvents=1;" vertex="1" parent="1">
          <mxGeometry x="670" y="50" width="210" height="130" as="geometry" />
        </mxCell>
      </root>
    </mxGraphModel>
  </diagram>
  <diagram id="ecQdCNV_-uQLD9DoJ1PU" name="vEventos">
    <mxGraphModel dx="1254" dy="671" grid="1" gridSize="10" guides="1" tooltips="1" connect="1" arrows="1" fold="1" page="1" pageScale="1" pageWidth="1169" pageHeight="827" math="0" shadow="0">
      <root>
        <mxCell id="0" />
        <mxCell id="1" parent="0" />
        <mxCell id="4bvnPruSc6A-5OFuFaWR-1" value="" style="rounded=0;whiteSpace=wrap;html=1;movable=0;resizable=0;rotatable=0;deletable=0;editable=0;locked=1;connectable=0;" parent="1" vertex="1">
          <mxGeometry x="10.77" y="20" width="1139.23" height="770" as="geometry" />
        </mxCell>
        <mxCell id="4bvnPruSc6A-5OFuFaWR-2" value="" style="endArrow=none;html=1;rounded=0;entryX=-0.001;entryY=0.124;entryDx=0;entryDy=0;entryPerimeter=0;exitX=0.998;exitY=0.12;exitDx=0;exitDy=0;exitPerimeter=0;" parent="1" edge="1">
          <mxGeometry width="50" height="50" relative="1" as="geometry">
            <mxPoint x="1149.4315400000005" y="109.99999999999986" as="sourcePoint" />
            <mxPoint x="11.340769999999758" y="113.08000000000001" as="targetPoint" />
          </mxGeometry>
        </mxCell>
        <mxCell id="4bvnPruSc6A-5OFuFaWR-3" value="&lt;font style=&quot;font-size: 36px;&quot;&gt;EVENTOS&lt;/font&gt;" style="text;html=1;align=center;verticalAlign=middle;whiteSpace=wrap;rounded=0;" parent="1" vertex="1">
          <mxGeometry x="262" y="50" width="644.23" height="30" as="geometry" />
        </mxCell>
        <mxCell id="4bvnPruSc6A-5OFuFaWR-4" value="" style="group" parent="1" connectable="0" vertex="1">
          <mxGeometry x="13" y="142" width="838" height="650" as="geometry" />
        </mxCell>
        <mxCell id="4bvnPruSc6A-5OFuFaWR-5" value="" style="group;fontSize=9;" parent="4bvnPruSc6A-5OFuFaWR-4" connectable="0" vertex="1">
          <mxGeometry x="-2" width="840" height="650" as="geometry" />
        </mxCell>
        <mxCell id="4bvnPruSc6A-5OFuFaWR-7" value="Ubicación" style="rounded=0;whiteSpace=wrap;html=1;" parent="4bvnPruSc6A-5OFuFaWR-5" vertex="1">
          <mxGeometry x="195.56" y="163.03" width="266.67" height="30.97" as="geometry" />
        </mxCell>
        <mxCell id="4bvnPruSc6A-5OFuFaWR-8" value="Nombre" style="rounded=0;whiteSpace=wrap;html=1;" parent="4bvnPruSc6A-5OFuFaWR-5" vertex="1">
          <mxGeometry x="28.33" y="162" width="148" height="32" as="geometry" />
        </mxCell>
        <mxCell id="4bvnPruSc6A-5OFuFaWR-9" value="Descripción" style="rounded=0;whiteSpace=wrap;html=1;" parent="4bvnPruSc6A-5OFuFaWR-5" vertex="1">
          <mxGeometry x="30" y="258" width="440" height="272" as="geometry" />
        </mxCell>
        <mxCell id="4bvnPruSc6A-5OFuFaWR-13" value="ELIMINAR" style="rounded=0;whiteSpace=wrap;html=1;fillColor=#fad9d5;strokeColor=#ae4132;fontSize=18;" parent="4bvnPruSc6A-5OFuFaWR-5" vertex="1">
          <mxGeometry x="29" y="568" width="140" height="50" as="geometry" />
        </mxCell>
        <mxCell id="4bvnPruSc6A-5OFuFaWR-14" value="Fecha final" style="rounded=0;whiteSpace=wrap;html=1;" parent="4bvnPruSc6A-5OFuFaWR-5" vertex="1">
          <mxGeometry x="252.23" y="208" width="210" height="30.97" as="geometry" />
        </mxCell>
        <mxCell id="4bvnPruSc6A-5OFuFaWR-15" value="Fecha inicio" style="rounded=0;whiteSpace=wrap;html=1;" parent="4bvnPruSc6A-5OFuFaWR-5" vertex="1">
          <mxGeometry x="29" y="208" width="206.67" height="30.97" as="geometry" />
        </mxCell>
        <mxCell id="tOvF4pCaL2rHvSzDuet6-1" value="VER OBJETIVOS" style="rounded=0;whiteSpace=wrap;html=1;" parent="4bvnPruSc6A-5OFuFaWR-5" vertex="1">
          <mxGeometry x="499" y="548" width="120" height="60" as="geometry" />
        </mxCell>
        <mxCell id="4bvnPruSc6A-5OFuFaWR-22" value="Volver" style="rounded=0;whiteSpace=wrap;html=1;" parent="4bvnPruSc6A-5OFuFaWR-4" vertex="1">
          <mxGeometry x="16" y="-10" width="120" height="42.67" as="geometry" />
        </mxCell>
        <mxCell id="4bvnPruSc6A-5OFuFaWR-23" value="" style="group" parent="1" connectable="0" vertex="1">
          <mxGeometry x="770" y="121" width="377.77" height="650" as="geometry" />
        </mxCell>
        <mxCell id="ibvfAfhhvhQw5Ql-h5Bo-1" value="" style="group" parent="4bvnPruSc6A-5OFuFaWR-23" connectable="0" vertex="1">
          <mxGeometry x="-260" y="50" width="623.73" height="500" as="geometry" />
        </mxCell>
        <mxCell id="ibvfAfhhvhQw5Ql-h5Bo-2" value="" style="rounded=0;whiteSpace=wrap;html=1;" parent="ibvfAfhhvhQw5Ql-h5Bo-1" vertex="1">
          <mxGeometry width="610.0034517393088" height="500" as="geometry" />
        </mxCell>
        <mxCell id="ibvfAfhhvhQw5Ql-h5Bo-3" value="" style="endArrow=none;html=1;rounded=0;exitX=-0.002;exitY=0.132;exitDx=0;exitDy=0;exitPerimeter=0;entryX=0.996;entryY=0.135;entryDx=0;entryDy=0;entryPerimeter=0;" parent="ibvfAfhhvhQw5Ql-h5Bo-1" source="ibvfAfhhvhQw5Ql-h5Bo-2" target="ibvfAfhhvhQw5Ql-h5Bo-2" edge="1">
          <mxGeometry width="50" height="50" relative="1" as="geometry">
            <mxPoint x="358.82555984665225" y="414.63414634146335" as="sourcePoint" />
            <mxPoint x="418.6298198210943" y="292.6829268292683" as="targetPoint" />
          </mxGeometry>
        </mxCell>
        <mxCell id="ibvfAfhhvhQw5Ql-h5Bo-7" value="DESCRIPCIÓN&amp;nbsp;" style="text;html=1;align=center;verticalAlign=middle;whiteSpace=wrap;rounded=0;fontSize=14;" parent="ibvfAfhhvhQw5Ql-h5Bo-1" vertex="1">
          <mxGeometry x="50.00440059981044" width="299.0212998722102" height="73.17073170731707" as="geometry" />
        </mxCell>
        <mxCell id="ibvfAfhhvhQw5Ql-h5Bo-8" value="" style="endArrow=none;html=1;rounded=0;exitX=0.059;exitY=-0.025;exitDx=0;exitDy=0;exitPerimeter=0;entryX=0.156;entryY=1.006;entryDx=0;entryDy=0;entryPerimeter=0;" parent="ibvfAfhhvhQw5Ql-h5Bo-1" target="ibvfAfhhvhQw5Ql-h5Bo-2" edge="1">
          <mxGeometry width="50" height="50" relative="1" as="geometry">
            <mxPoint x="95.84230703504096" y="-1.8292682926829267" as="sourcePoint" />
            <mxPoint x="95.68681595910728" y="487.80487804878055" as="targetPoint" />
            <Array as="points">
              <mxPoint x="95.68681595910728" y="48.78048780487805" />
            </Array>
          </mxGeometry>
        </mxCell>
        <mxCell id="ibvfAfhhvhQw5Ql-h5Bo-9" value="" style="endArrow=none;html=1;rounded=0;exitX=0;exitY=0;exitDx=0;exitDy=0;entryX=0.404;entryY=0.992;entryDx=0;entryDy=0;entryPerimeter=0;" parent="ibvfAfhhvhQw5Ql-h5Bo-1" edge="1">
          <mxGeometry width="50" height="50" relative="1" as="geometry">
            <mxPoint x="299.9977759858913" y="3.9999999999999996" as="sourcePoint" />
            <mxPoint x="301.2417045933597" y="500" as="targetPoint" />
          </mxGeometry>
        </mxCell>
        <mxCell id="ibvfAfhhvhQw5Ql-h5Bo-10" value="" style="endArrow=none;html=1;rounded=0;exitX=0;exitY=0;exitDx=0;exitDy=0;entryX=0.804;entryY=1.001;entryDx=0;entryDy=0;entryPerimeter=0;" parent="ibvfAfhhvhQw5Ql-h5Bo-1" edge="1">
          <mxGeometry width="50" height="50" relative="1" as="geometry">
            <mxPoint x="440.00464665412346" y="-0.48780487804878053" as="sourcePoint" />
            <mxPoint x="440.0524900621031" y="500.0121951219513" as="targetPoint" />
          </mxGeometry>
        </mxCell>
        <mxCell id="ibvfAfhhvhQw5Ql-h5Bo-11" value="NOMBRE" style="text;html=1;align=center;verticalAlign=middle;whiteSpace=wrap;rounded=0;fontSize=14;" parent="ibvfAfhhvhQw5Ql-h5Bo-1" vertex="1">
          <mxGeometry x="20.000851994888407" width="59.80425997444205" height="73.17073170731707" as="geometry" />
        </mxCell>
        <mxCell id="ibvfAfhhvhQw5Ql-h5Bo-13" value="F INICIO" style="text;html=1;align=center;verticalAlign=middle;whiteSpace=wrap;rounded=0;fontSize=12;" parent="ibvfAfhhvhQw5Ql-h5Bo-1" vertex="1">
          <mxGeometry x="440.0044505745826" width="83.72596396421885" height="73.17073170731707" as="geometry" />
        </mxCell>
        <mxCell id="ibvfAfhhvhQw5Ql-h5Bo-14" value="F FINAL" style="text;html=1;align=center;verticalAlign=middle;whiteSpace=wrap;rounded=0;fontSize=12;" parent="ibvfAfhhvhQw5Ql-h5Bo-1" vertex="1">
          <mxGeometry x="526.2739583433538" width="83.72596396421885" height="73.17073170731707" as="geometry" />
        </mxCell>
        <mxCell id="ibvfAfhhvhQw5Ql-h5Bo-15" value="UBICACIÓN" style="text;html=1;align=center;verticalAlign=middle;whiteSpace=wrap;rounded=0;fontSize=14;" parent="ibvfAfhhvhQw5Ql-h5Bo-1" vertex="1">
          <mxGeometry x="220.0012448895868" width="300.00169757670926" height="73.17073170731707" as="geometry" />
        </mxCell>
        <mxCell id="ibvfAfhhvhQw5Ql-h5Bo-18" value="" style="endArrow=none;html=1;rounded=0;exitX=0.059;exitY=-0.025;exitDx=0;exitDy=0;exitPerimeter=0;entryX=0.156;entryY=1.006;entryDx=0;entryDy=0;entryPerimeter=0;" parent="ibvfAfhhvhQw5Ql-h5Bo-1" edge="1">
          <mxGeometry width="50" height="50" relative="1" as="geometry">
            <mxPoint x="520.8447119353791" y="-4.2682926829268295" as="sourcePoint" />
            <mxPoint x="520.0029424662961" y="500" as="targetPoint" />
            <Array as="points">
              <mxPoint x="520.6892208594454" y="46.34146341463415" />
            </Array>
          </mxGeometry>
        </mxCell>
        <mxCell id="4bvnPruSc6A-5OFuFaWR-11" value="Guardar edición" style="rounded=0;whiteSpace=wrap;html=1;" parent="4bvnPruSc6A-5OFuFaWR-23" vertex="1">
          <mxGeometry x="194" y="610.52" width="156" height="30.97" as="geometry" />
        </mxCell>
        <mxCell id="4bvnPruSc6A-5OFuFaWR-12" value="&lt;span style=&quot;color: rgb(0, 0, 0); font-family: Helvetica; font-size: 10px; font-style: normal; font-variant-ligatures: normal; font-variant-caps: normal; font-weight: 400; letter-spacing: normal; orphans: 2; text-align: center; text-indent: 0px; text-transform: none; widows: 2; word-spacing: 0px; -webkit-text-stroke-width: 0px; white-space: normal; background-color: rgb(251, 251, 251); text-decoration-thickness: initial; text-decoration-style: initial; text-decoration-color: initial; display: inline !important; float: none;&quot;&gt;Por si acaso se cambia algún dato (menos las pks del evento, que son inmutables)&lt;/span&gt;" style="text;whiteSpace=wrap;html=1;" parent="4bvnPruSc6A-5OFuFaWR-23" vertex="1">
          <mxGeometry x="204" y="550" width="136" height="31" as="geometry" />
        </mxCell>
        <mxCell id="tOvF4pCaL2rHvSzDuet6-2" value="VER PROPIEDADES" style="rounded=0;whiteSpace=wrap;html=1;" parent="1" vertex="1">
          <mxGeometry x="650" y="690" width="150" height="60" as="geometry" />
        </mxCell>
        <mxCell id="tOvF4pCaL2rHvSzDuet6-3" value="VER ACÓLITOS" style="rounded=0;whiteSpace=wrap;html=1;" parent="1" vertex="1">
          <mxGeometry x="820" y="690" width="120" height="60" as="geometry" />
        </mxCell>
        <mxCell id="ASKBgheVpOF5cBt5DLHx-1" value="&lt;b&gt;&lt;font style=&quot;font-size: 18px;&quot; color=&quot;#ffffff&quot;&gt;* Tamaño de pantalla&lt;/font&gt;&lt;/b&gt;&lt;div&gt;&lt;b&gt;&lt;font style=&quot;font-size: 18px;&quot; color=&quot;#ffffff&quot;&gt;* JDIALOG (deriva de vPrincipal)&lt;/font&gt;&lt;/b&gt;&lt;/div&gt;" style="shape=note;whiteSpace=wrap;html=1;backgroundOutline=1;fontColor=#000000;darkOpacity=0.05;fillColor=#666600;strokeColor=none;fillStyle=solid;direction=west;gradientDirection=radial;gradientColor=none;shadow=1;size=20;pointerEvents=1;" parent="1" vertex="1">
          <mxGeometry x="1180" y="20" width="210" height="130" as="geometry" />
        </mxCell>
      </root>
    </mxGraphModel>
  </diagram>
  <diagram id="uRvkRfjrc3PoiF8h4N_w" name="vObjetivosEvento">
    <mxGraphModel grid="1" page="1" gridSize="10" guides="1" tooltips="1" connect="1" arrows="1" fold="1" pageScale="1" pageWidth="827" pageHeight="1169" math="0" shadow="0">
      <root>
        <mxCell id="0" />
        <mxCell id="1" parent="0" />
        <mxCell id="1loFyoOc6oeaKAn22LuH-1" value="" style="rounded=0;whiteSpace=wrap;html=1;movable=1;resizable=1;rotatable=1;deletable=1;editable=1;locked=0;connectable=1;" parent="1" vertex="1">
          <mxGeometry x="10.77" y="20" width="749.23" height="860" as="geometry" />
        </mxCell>
        <mxCell id="1loFyoOc6oeaKAn22LuH-2" value="" style="endArrow=none;html=1;rounded=0;entryX=-0.001;entryY=0.124;entryDx=0;entryDy=0;entryPerimeter=0;" parent="1" edge="1">
          <mxGeometry width="50" height="50" relative="1" as="geometry">
            <mxPoint x="760" y="113" as="sourcePoint" />
            <mxPoint x="11.340769999999758" y="113.08000000000001" as="targetPoint" />
          </mxGeometry>
        </mxCell>
        <mxCell id="1loFyoOc6oeaKAn22LuH-3" value="&lt;font style=&quot;font-size: 36px;&quot;&gt;OBJETIVOS&lt;/font&gt;" style="text;html=1;align=center;verticalAlign=middle;whiteSpace=wrap;rounded=0;" parent="1" vertex="1">
          <mxGeometry x="48.06999999999999" y="50" width="644.23" height="30" as="geometry" />
        </mxCell>
        <mxCell id="1loFyoOc6oeaKAn22LuH-40" value="Nuevo objetivo:" style="text;html=1;align=center;verticalAlign=middle;whiteSpace=wrap;rounded=0;fontSize=14;" parent="1" vertex="1">
          <mxGeometry x="132.3" y="240.03" width="105.4" height="30" as="geometry" />
        </mxCell>
        <mxCell id="1loFyoOc6oeaKAn22LuH-20" value="Volver" style="rounded=0;whiteSpace=wrap;html=1;" parent="1" vertex="1">
          <mxGeometry x="29" y="132" width="120" height="42.67" as="geometry" />
        </mxCell>
        <mxCell id="1loFyoOc6oeaKAn22LuH-6" value="(Descripción)" style="rounded=0;whiteSpace=wrap;html=1;" parent="1" vertex="1">
          <mxGeometry x="250" y="240.03" width="290" height="80" as="geometry" />
        </mxCell>
        <mxCell id="1loFyoOc6oeaKAn22LuH-7" value="Nombre del evento" style="rounded=0;whiteSpace=wrap;html=1;" parent="1" vertex="1">
          <mxGeometry x="297" y="137.34" width="356" height="32" as="geometry" />
        </mxCell>
        <mxCell id="1loFyoOc6oeaKAn22LuH-12" value="VACIAR TABLA DE OBJETIVOS" style="rounded=0;whiteSpace=wrap;html=1;fillColor=#fad9d5;strokeColor=#ae4132;fontSize=18;" parent="1" vertex="1">
          <mxGeometry x="160" y="770.03" width="178.67" height="68" as="geometry" />
        </mxCell>
        <mxCell id="1loFyoOc6oeaKAn22LuH-19" value="Jefe a cargo" style="rounded=0;whiteSpace=wrap;html=1;" parent="1" vertex="1">
          <mxGeometry x="385" y="180" width="180" height="30.97" as="geometry" />
        </mxCell>
        <mxCell id="1loFyoOc6oeaKAn22LuH-42" value="Recompensa asociada&lt;span style=&quot;background-color: initial;&quot;&gt;:&lt;/span&gt;" style="text;html=1;align=center;verticalAlign=middle;whiteSpace=wrap;rounded=0;fontSize=14;" parent="1" vertex="1">
          <mxGeometry x="60" y="340" width="205.96" height="30" as="geometry" />
        </mxCell>
        <mxCell id="1loFyoOc6oeaKAn22LuH-22" value="ACTUALIZAR OBJETIVOS" style="rounded=0;whiteSpace=wrap;html=1;fillColor=#A1FA1B;strokeColor=#87AE07;fontSize=18;" parent="1" vertex="1">
          <mxGeometry x="414" y="770" width="187" height="68.03" as="geometry" />
        </mxCell>
        <mxCell id="1loFyoOc6oeaKAn22LuH-23" value="" style="group" parent="1" connectable="0" vertex="1">
          <mxGeometry x="90" y="440" width="570" height="205" as="geometry" />
        </mxCell>
        <mxCell id="1loFyoOc6oeaKAn22LuH-24" value="" style="rounded=0;whiteSpace=wrap;html=1;" parent="1loFyoOc6oeaKAn22LuH-23" vertex="1">
          <mxGeometry width="570" height="205" as="geometry" />
        </mxCell>
        <mxCell id="1loFyoOc6oeaKAn22LuH-25" value="" style="endArrow=none;html=1;rounded=0;exitX=-0.002;exitY=0.132;exitDx=0;exitDy=0;exitPerimeter=0;entryX=0.996;entryY=0.135;entryDx=0;entryDy=0;entryPerimeter=0;" parent="1loFyoOc6oeaKAn22LuH-23" source="1loFyoOc6oeaKAn22LuH-24" target="1loFyoOc6oeaKAn22LuH-24" edge="1">
          <mxGeometry width="50" height="50" relative="1" as="geometry">
            <mxPoint x="335.29411764705884" y="170" as="sourcePoint" />
            <mxPoint x="391.1764705882352" y="120" as="targetPoint" />
          </mxGeometry>
        </mxCell>
        <mxCell id="1loFyoOc6oeaKAn22LuH-32" value="OBJETIVO" style="text;html=1;align=center;verticalAlign=middle;whiteSpace=wrap;rounded=0;fontSize=14;" parent="1loFyoOc6oeaKAn22LuH-23" vertex="1">
          <mxGeometry x="19.99666666666667" width="158.33333333333334" height="30" as="geometry" />
        </mxCell>
        <mxCell id="1loFyoOc6oeaKAn22LuH-33" value="" style="endArrow=none;html=1;rounded=0;exitX=0;exitY=0;exitDx=0;exitDy=0;entryX=0.284;entryY=1.004;entryDx=0;entryDy=0;entryPerimeter=0;" parent="1loFyoOc6oeaKAn22LuH-23" edge="1">
          <mxGeometry width="50" height="50" relative="1" as="geometry">
            <mxPoint x="190.52733584641012" as="sourcePoint" />
            <mxPoint x="190.0020417287632" y="205.82000000000005" as="targetPoint" />
          </mxGeometry>
        </mxCell>
        <mxCell id="1loFyoOc6oeaKAn22LuH-37" value="RECOMPENSA" style="text;html=1;align=center;verticalAlign=middle;whiteSpace=wrap;rounded=0;fontSize=14;" parent="1loFyoOc6oeaKAn22LuH-23" vertex="1">
          <mxGeometry x="300.00395195932316" width="55.88235294117646" height="30" as="geometry" />
        </mxCell>
        <mxCell id="rVhwzOZh1G5Giezu5NGH-5" value="" style="endArrow=none;html=1;rounded=0;exitX=0;exitY=0;exitDx=0;exitDy=0;entryX=0.284;entryY=1.004;entryDx=0;entryDy=0;entryPerimeter=0;" parent="1loFyoOc6oeaKAn22LuH-23" edge="1">
          <mxGeometry width="50" height="50" relative="1" as="geometry">
            <mxPoint x="460.5273358464101" y="6.772360450213455e-15" as="sourcePoint" />
            <mxPoint x="460.0020417287632" y="205.82" as="targetPoint" />
          </mxGeometry>
        </mxCell>
        <mxCell id="rVhwzOZh1G5Giezu5NGH-17" value="PRIORIDAD" style="text;html=1;align=center;verticalAlign=middle;whiteSpace=wrap;rounded=0;fontSize=14;" vertex="1" parent="1loFyoOc6oeaKAn22LuH-23">
          <mxGeometry x="490" width="60" height="30" as="geometry" />
        </mxCell>
        <mxCell id="ZdNX-yLQVIwDKt1ZvXac-1" value="&lt;b&gt;&lt;font style=&quot;font-size: 18px;&quot; color=&quot;#ffffff&quot;&gt;* Tamaño de pantalla&lt;/font&gt;&lt;/b&gt;&lt;div&gt;&lt;b&gt;&lt;font style=&quot;font-size: 18px;&quot; color=&quot;#ffffff&quot;&gt;* JDIALOG (deriva de vEventos)&lt;/font&gt;&lt;/b&gt;&lt;/div&gt;" style="shape=note;whiteSpace=wrap;html=1;backgroundOutline=1;fontColor=#000000;darkOpacity=0.05;fillColor=#666600;strokeColor=none;fillStyle=solid;direction=west;gradientDirection=radial;gradientColor=none;shadow=1;size=20;pointerEvents=1;" parent="1" vertex="1">
          <mxGeometry x="1020" y="20" width="210" height="130" as="geometry" />
        </mxCell>
        <mxCell id="rVhwzOZh1G5Giezu5NGH-1" value="ELIMINAR OBJETIVO" style="rounded=0;whiteSpace=wrap;html=1;fillColor=#fad9d5;strokeColor=#ae4132;fontSize=18;" parent="1" vertex="1">
          <mxGeometry x="90" y="670" width="190" height="37.97" as="geometry" />
        </mxCell>
        <mxCell id="rVhwzOZh1G5Giezu5NGH-2" value="Añadir" style="rounded=0;whiteSpace=wrap;html=1;" parent="1" vertex="1">
          <mxGeometry x="560" y="240" width="80" height="30.03" as="geometry" />
        </mxCell>
        <mxCell id="rVhwzOZh1G5Giezu5NGH-8" value="Prioridad:" style="text;html=1;align=center;verticalAlign=middle;whiteSpace=wrap;rounded=0;fontSize=14;" parent="1" vertex="1">
          <mxGeometry x="154.97000000000014" y="390" width="105.4" height="30" as="geometry" />
        </mxCell>
        <mxCell id="rVhwzOZh1G5Giezu5NGH-11" value="" style="group" connectable="0" vertex="1" parent="1">
          <mxGeometry x="250" y="340" width="288.34000000000003" height="30" as="geometry" />
        </mxCell>
        <mxCell id="1loFyoOc6oeaKAn22LuH-41" value="" style="rounded=0;whiteSpace=wrap;html=1;" parent="rVhwzOZh1G5Giezu5NGH-11" vertex="1">
          <mxGeometry width="288.34" height="30" as="geometry" />
        </mxCell>
        <mxCell id="rVhwzOZh1G5Giezu5NGH-9" value="" style="rounded=0;whiteSpace=wrap;html=1;" parent="rVhwzOZh1G5Giezu5NGH-11" vertex="1">
          <mxGeometry x="258.34000000000003" width="30" height="30" as="geometry" />
        </mxCell>
        <mxCell id="rVhwzOZh1G5Giezu5NGH-10" value="" style="triangle;whiteSpace=wrap;html=1;rotation=90;" vertex="1" parent="rVhwzOZh1G5Giezu5NGH-11">
          <mxGeometry x="265.84000000000003" y="5" width="15" height="20" as="geometry" />
        </mxCell>
        <mxCell id="rVhwzOZh1G5Giezu5NGH-12" value="" style="group" connectable="0" vertex="1" parent="1">
          <mxGeometry x="240" y="390" width="288.34000000000003" height="30" as="geometry" />
        </mxCell>
        <mxCell id="rVhwzOZh1G5Giezu5NGH-13" value="" style="rounded=0;whiteSpace=wrap;html=1;" vertex="1" parent="rVhwzOZh1G5Giezu5NGH-12">
          <mxGeometry x="7.5" width="58.34" height="30" as="geometry" />
        </mxCell>
        <mxCell id="rVhwzOZh1G5Giezu5NGH-14" value="" style="rounded=0;whiteSpace=wrap;html=1;" vertex="1" parent="rVhwzOZh1G5Giezu5NGH-12">
          <mxGeometry x="58.34000000000003" width="30" height="30" as="geometry" />
        </mxCell>
        <mxCell id="rVhwzOZh1G5Giezu5NGH-15" value="" style="triangle;whiteSpace=wrap;html=1;rotation=90;" vertex="1" parent="rVhwzOZh1G5Giezu5NGH-12">
          <mxGeometry x="65.84000000000003" y="5" width="15" height="20" as="geometry" />
        </mxCell>
      </root>
    </mxGraphModel>
  </diagram>
  <diagram id="9XnZaelDxLR2IMDqpIOk" name="vPropiedadesEvento">
    <mxGraphModel grid="1" page="1" gridSize="10" guides="1" tooltips="1" connect="1" arrows="1" fold="1" pageScale="1" pageWidth="827" pageHeight="1169" math="0" shadow="0">
      <root>
        <mxCell id="0" />
        <mxCell id="1" parent="0" />
        <mxCell id="7sr7SBrpFXeZzwF3IyaR-1" value="&lt;b&gt;&lt;font style=&quot;font-size: 18px;&quot; color=&quot;#ffffff&quot;&gt;* Tamaño de pantalla&lt;/font&gt;&lt;/b&gt;&lt;div&gt;&lt;b&gt;&lt;font style=&quot;font-size: 18px;&quot; color=&quot;#ffffff&quot;&gt;* JDIALOG (deriva de vEventos)&lt;/font&gt;&lt;/b&gt;&lt;/div&gt;" style="shape=note;whiteSpace=wrap;html=1;backgroundOutline=1;fontColor=#000000;darkOpacity=0.05;fillColor=#666600;strokeColor=none;fillStyle=solid;direction=west;gradientDirection=radial;gradientColor=none;shadow=1;size=20;pointerEvents=1;" vertex="1" parent="1">
          <mxGeometry x="1020" y="20" width="210" height="130" as="geometry" />
        </mxCell>
      </root>
    </mxGraphModel>
  </diagram>
  <diagram id="-ZxLHnHWVPQgjbQEw-7Q" name="vAcólitosEvento">
    <mxGraphModel dx="964" dy="959" grid="1" gridSize="10" guides="1" tooltips="1" connect="1" arrows="1" fold="1" page="1" pageScale="1" pageWidth="827" pageHeight="1169" math="0" shadow="0">
      <root>
        <mxCell id="0" />
        <mxCell id="1" parent="0" />
        <mxCell id="6A1V0OC4hwsrUX-4F9dv-1" value="&lt;b&gt;&lt;font style=&quot;font-size: 18px;&quot; color=&quot;#ffffff&quot;&gt;* Tamaño de pantalla&lt;/font&gt;&lt;/b&gt;&lt;div&gt;&lt;b&gt;&lt;font style=&quot;font-size: 18px;&quot; color=&quot;#ffffff&quot;&gt;* JDIALOG (deriva de BEREBERE)&lt;/font&gt;&lt;/b&gt;&lt;/div&gt;" style="shape=note;whiteSpace=wrap;html=1;backgroundOutline=1;fontColor=#000000;darkOpacity=0.05;fillColor=#666600;strokeColor=none;fillStyle=solid;direction=west;gradientDirection=radial;gradientColor=none;shadow=1;size=20;pointerEvents=1;" parent="1" vertex="1">
          <mxGeometry x="1020" y="20" width="210" height="130" as="geometry" />
        </mxCell>
      </root>
    </mxGraphModel>
  </diagram>
</mxfile>
